NotoSerif-LightItalic.ufo
<glyph name="Eth" format="2">
  <advance width="670"/>
  <unicode hex="00D0"/>
  <anchor x="278" y="0" name="bottom"/>
  <anchor x="430" y="714" name="top"/>
  <anchor x="373" y="357" name="center"/>
  <anchor x="745" y="714" name="topright"/>
  <outline>
    <contour>
      <point x="44" y="361" type="line"/>
      <point x="410" y="361" type="line"/>
      <point x="414" y="386" type="line"/>
      <point x="50" y="386" type="line"/>
    </contour>
    <component base="D"/>
  </outline>
</glyph>
<glyph name="oslash" format="2">
  <advance width="517"/>
  <unicode hex="00F8"/>
  <anchor x="202" y="0" name="bottom"/>
  <anchor x="316" y="536" name="top"/>
  <anchor x="316" y="268" name="center"/>
  <anchor x="554" y="536" name="topright"/>
  <outline>
    <contour>
      <point x="-16" y="-50" type="line"/>
      <point x="17" y="-50" type="line"/>
      <point x="534" y="586" type="line"/>
      <point x="501" y="586" type="line"/>
    </contour>
    <component base="o"/>
  </outline>
</glyph>
<glyph name="Hbar" format="2">
  <advance width="761"/>
  <unicode hex="0126"/>
  <anchor x="324" y="0" name="bottom"/>
  <anchor x="476" y="714" name="top"/>
  <anchor x="419" y="357" name="center"/>
  <anchor x="836" y="714" name="topright"/>
  <outline>
    <contour>
      <point x="109" y="512" type="line"/>
      <point x="741" y="512" type="line"/>
      <point x="747" y="537" type="line"/>
      <point x="115" y="537" type="line"/>
    </contour>
    <component base="H"/>
  </outline>
</glyph>
<glyph name="lslash" format="2">
  <advance width="285"/>
  <unicode hex="0142"/>
  <anchor x="87" y="0" name="bottom"/>
  <anchor x="249" y="760" name="top"/>
  <anchor x="179" y="268" name="center"/>
  <anchor x="328" y="760" name="topright"/>
  <outline>
    <contour>
      <point x="-2" y="237" type="line"/>
      <point x="108" y="293" type="line"/>
      <point x="130" y="304" type="line"/>
      <point x="259" y="370" type="line"/>
      <point x="265" y="402" type="line"/>
      <point x="136" y="336" type="line"/>
      <point x="116" y="325" type="line"/>
      <point x="6" y="269" type="line"/>
    </contour>
    <component base="l"/>
  </outline>
</glyph>
<glyph name="Tbar" format="2">
  <advance width="562"/>
  <unicode hex="0166"/>
  <anchor x="224" y="0" name="bottom"/>
  <anchor x="376" y="714" name="top"/>
  <anchor x="319" y="357" name="center"/>
  <anchor x="637" y="714" name="topright"/>
  <outline>
    <contour>
      <point x="73" y="337" type="line"/>
      <point x="273" y="337" type="line"/>
      <point x="291" y="337" type="line"/>
      <point x="498" y="337" type="line"/>
      <point x="503" y="362" type="line"/>
      <point x="300" y="362" type="line"/>
      <point x="282" y="362" type="line"/>
      <point x="78" y="362" type="line"/>
    </contour>
    <component base="T"/>
  </outline>
</glyph>
<glyph name="uni0191" format="2">
  <advance width="656"/>
  <unicode hex="0191"/>
  <anchor x="95" y="-10" name="bottom"/>
  <anchor x="480" y="714" name="top"/>
  <anchor x="741" y="714" name="topright"/>
  <outline>
    <contour>
      <point x="95" y="-10" type="curve" smooth="yes"/>
      <point x="198" y="-10"/>
      <point x="233" y="63"/>
      <point x="250" y="139" type="curve" smooth="yes"/>
      <point x="293" y="342" type="line"/>
      <point x="554" y="342" type="line"/>
      <point x="558" y="367" type="line"/>
      <point x="299" y="367" type="line"/>
      <point x="367" y="689" type="line"/>
      <point x="588" y="689" type="line" smooth="yes"/>
      <point x="640" y="689"/>
      <point x="648" y="686"/>
      <point x="648" y="645" type="curve" smooth="yes"/>
      <point x="648" y="627"/>
      <point x="638" y="573"/>
      <point x="635" y="553" type="curve"/>
      <point x="660" y="553" type="line"/>
      <point x="690" y="714" type="line"/>
      <point x="247" y="714" type="line"/>
      <point x="242" y="694" type="line"/>
      <point x="277" y="694" type="line" smooth="yes"/>
      <point x="323" y="694"/>
      <point x="330" y="690"/>
      <point x="330" y="665" type="curve" smooth="yes"/>
      <point x="330" y="650"/>
      <point x="324" y="618"/>
      <point x="315" y="576" type="curve" smooth="yes"/>
      <point x="221" y="134" type="line" smooth="yes"/>
      <point x="208" y="74"/>
      <point x="178" y="15"/>
      <point x="94" y="15" type="curve" smooth="yes"/>
      <point x="14" y="15"/>
      <point x="-18" y="68"/>
      <point x="-18" y="149" type="curve"/>
      <point x="-33" y="149"/>
      <point x="-43" y="138"/>
      <point x="-43" y="113" type="curve" smooth="yes"/>
      <point x="-43" y="55"/>
      <point x="0" y="-10"/>
    </contour>
  </outline>
</glyph>
<glyph name="florin" format="2">
  <advance width="301"/>
  <unicode hex="0192"/>
  <anchor x="42" y="-12" name="bottom"/>
  <anchor x="372" y="770" name="top"/>
  <anchor x="487" y="770" name="topright"/>
  <outline>
    <contour>
      <point x="42" y="-12" type="curve" smooth="yes"/>
      <point x="113" y="-12"/>
      <point x="151" y="48"/>
      <point x="176" y="166" type="curve" smooth="yes"/>
      <point x="250" y="511" type="line"/>
      <point x="340" y="511" type="line"/>
      <point x="345" y="536" type="line"/>
      <point x="255" y="536" type="line"/>
      <point x="271" y="613" type="line" smooth="yes"/>
      <point x="288" y="696"/>
      <point x="317" y="745"/>
      <point x="376" y="745" type="curve" smooth="yes"/>
      <point x="426" y="745"/>
      <point x="443" y="719"/>
      <point x="443" y="653" type="curve"/>
      <point x="458" y="653"/>
      <point x="470" y="665"/>
      <point x="470" y="683" type="curve" smooth="yes"/>
      <point x="470" y="731"/>
      <point x="440" y="770"/>
      <point x="377" y="770" type="curve" smooth="yes"/>
      <point x="302" y="770"/>
      <point x="263" y="710"/>
      <point x="243" y="613" type="curve" smooth="yes"/>
      <point x="227" y="536" type="line"/>
      <point x="142" y="529" type="line"/>
      <point x="138" y="511" type="line"/>
      <point x="222" y="511" type="line"/>
      <point x="148" y="166" type="line" smooth="yes"/>
      <point x="126" y="62"/>
      <point x="98" y="13"/>
      <point x="43" y="13" type="curve" smooth="yes"/>
      <point x="-3" y="13"/>
      <point x="-22" y="37"/>
      <point x="-22" y="103" type="curve"/>
      <point x="-37" y="103"/>
      <point x="-49" y="91"/>
      <point x="-49" y="73" type="curve" smooth="yes"/>
      <point x="-49" y="25"/>
      <point x="-17" y="-12"/>
    </contour>
  </outline>
</glyph>
<glyph name="uni019A" format="2">
  <advance width="243"/>
  <unicode hex="019A"/>
  <anchor x="65" y="0" name="bottom"/>
  <anchor x="227" y="760" name="top"/>
  <anchor x="179" y="268" name="center"/>
  <anchor x="328" y="760" name="topright"/>
  <outline>
    <contour>
      <point x="54" y="377" type="line"/>
      <point x="215" y="377" type="line"/>
      <point x="221" y="402" type="line"/>
      <point x="61" y="402" type="line"/>
    </contour>
    <component base="l"/>
  </outline>
</glyph>
<glyph name="uni019B" format="2">
  <advance width="484"/>
  <unicode hex="019B"/>
  <anchor x="185" y="0" name="bottom"/>
  <anchor x="349" y="770" name="top"/>
  <outline>
    <contour>
      <point x="156" y="550" type="line"/>
      <point x="417" y="684" type="line"/>
      <point x="423" y="715" type="line"/>
      <point x="163" y="581" type="line"/>
    </contour>
    <component base="lambda"/>
  </outline>
</glyph>
<glyph name="uni01B5" format="2">
  <advance width="526"/>
  <unicode hex="01B5"/>
  <anchor x="205" y="0" name="bottom"/>
  <anchor x="357" y="714" name="top"/>
  <anchor x="601" y="714" name="topright"/>
  <outline>
    <contour>
      <point x="103" y="362" type="line"/>
      <point x="261" y="362" type="line"/>
      <point x="279" y="362" type="line"/>
      <point x="442" y="362" type="line"/>
      <point x="449" y="387" type="line"/>
      <point x="301" y="387" type="line"/>
      <point x="283" y="387" type="line"/>
      <point x="110" y="387" type="line"/>
    </contour>
    <component base="Z"/>
  </outline>
</glyph>
<glyph name="uni01B6" format="2">
  <advance width="450"/>
  <unicode hex="01B6"/>
  <anchor x="169" y="0" name="bottom"/>
  <anchor x="283" y="536" name="top"/>
  <anchor x="487" y="536" name="topright"/>
  <outline>
    <contour>
      <point x="86" y="258" type="line"/>
      <point x="184" y="258" type="line"/>
      <point x="203" y="258" type="line"/>
      <point x="313" y="258" type="line"/>
      <point x="321" y="283" type="line"/>
      <point x="230" y="283" type="line"/>
      <point x="211" y="283" type="line"/>
      <point x="95" y="283" type="line"/>
    </contour>
    <component base="z"/>
  </outline>
</glyph>
<glyph name="uni01E5" format="2">
  <advance width="526"/>
  <unicode hex="01E5"/>
  <anchor x="156" y="-240" name="bottom"/>
  <anchor x="327" y="566" name="top"/>
  <anchor x="526" y="536" name="topright"/>
  <outline>
    <contour>
      <point x="223" y="-89" type="line"/>
      <point x="480" y="-89" type="line"/>
      <point x="486" y="-64" type="line"/>
      <point x="229" y="-64" type="line"/>
    </contour>
    <component base="g"/>
  </outline>
</glyph>
<glyph name="uni023A" format="2">
  <advance width="644"/>
  <unicode hex="023A"/>
  <anchor x="266" y="0" name="bottom"/>
  <anchor x="406" y="714" name="top"/>
  <anchor x="719" y="714" name="topright"/>
  <outline>
    <contour>
      <point x="136" y="-30" type="line"/>
      <point x="161" y="-30" type="line"/>
      <point x="564" y="760" type="line"/>
      <point x="539" y="760" type="line"/>
    </contour>
    <component base="A"/>
  </outline>
</glyph>
<glyph name="uni023D" format="2">
  <advance width="582"/>
  <unicode hex="023D"/>
  <anchor x="235" y="0" name="bottom"/>
  <anchor x="387" y="714" name="top"/>
  <anchor x="330" y="357" name="center"/>
  <anchor x="657" y="714" name="topright"/>
  <outline>
    <contour>
      <point x="59" y="357" type="line"/>
      <point x="162" y="357" type="line"/>
      <point x="189" y="357" type="line"/>
      <point x="328" y="357" type="line"/>
      <point x="333" y="382" type="line"/>
      <point x="194" y="382" type="line"/>
      <point x="166" y="382" type="line"/>
      <point x="64" y="382" type="line"/>
    </contour>
    <component base="L"/>
  </outline>
</glyph>
<glyph name="uni023E" format="2">
  <advance width="562"/>
  <unicode hex="023E"/>
  <anchor x="224" y="0" name="bottom"/>
  <anchor x="376" y="714" name="top"/>
  <anchor x="319" y="357" name="center"/>
  <anchor x="637" y="714" name="topright"/>
  <outline>
    <contour>
      <point x="-40" y="-86" type="line"/>
      <point x="-9" y="-86" type="line"/>
      <point x="620" y="760" type="line"/>
      <point x="589" y="760" type="line"/>
    </contour>
    <component base="T"/>
  </outline>
</glyph>
<glyph name="uni0246" format="2">
  <advance width="611"/>
  <unicode hex="0246"/>
  <anchor x="249" y="0" name="bottom"/>
  <anchor x="401" y="714" name="top"/>
  <anchor x="686" y="714" name="topright"/>
  <outline>
    <contour>
      <point x="105" y="-90" type="line"/>
      <point x="133" y="-90" type="line"/>
      <point x="559" y="760" type="line"/>
      <point x="533" y="760" type="line"/>
    </contour>
    <component base="E"/>
  </outline>
</glyph>
<glyph name="uni0248" format="2">
  <advance width="300"/>
  <unicode hex="0248"/>
  <anchor x="43" y="-240" name="bottom"/>
  <anchor x="246" y="714" name="top"/>
  <anchor x="368" y="714" name="topright"/>
  <outline>
    <contour>
      <point x="69" y="362" type="line"/>
      <point x="270" y="362" type="line"/>
      <point x="275" y="387" type="line"/>
      <point x="75" y="387" type="line"/>
    </contour>
    <component base="J"/>
  </outline>
</glyph>
<glyph name="uni024F" format="2">
  <advance width="453"/>
  <unicode hex="024F"/>
  <anchor x="28" y="-240" name="bottom"/>
  <anchor x="263" y="536" name="top"/>
  <anchor x="468" y="536" name="topright"/>
  <outline>
    <contour>
      <point x="24" y="306" type="line"/>
      <point x="466" y="306" type="line"/>
      <point x="471" y="331" type="line"/>
      <point x="29" y="331" type="line"/>
    </contour>
    <component base="y"/>
  </outline>
</glyph>
<glyph name="uni025F" format="2">
  <advance width="230"/>
  <unicode hex="025F"/>
  <anchor x="8" y="-240" name="bottom"/>
  <anchor x="173" y="536" name="top"/>
  <anchor x="248" y="536" name="topright"/>
  <outline>
    <contour>
      <point x="37" y="277" type="line"/>
      <point x="210" y="277" type="line"/>
      <point x="215" y="302" type="line"/>
      <point x="42" y="302" type="line"/>
    </contour>
    <component base="jdotless"/>
  </outline>
</glyph>
<glyph name="uni0289" format="2">
  <advance width="504"/>
  <unicode hex="0289"/>
  <anchor x="196" y="0" name="bottom"/>
  <anchor x="310" y="536" name="top"/>
  <anchor x="543" y="536" name="topright"/>
  <outline>
    <contour>
      <point x="30" y="251" type="line"/>
      <point x="468" y="251" type="line"/>
      <point x="475" y="276" type="line"/>
      <point x="35" y="276" type="line"/>
    </contour>
    <component base="u"/>
  </outline>
</glyph>
<glyph name="uni02A1" format="2">
  <advance width="302"/>
  <unicode hex="02A1"/>
  <anchor x="84" y="0" name="bottom"/>
  <anchor x="237" y="773" name="top"/>
  <anchor x="409" y="760" name="topright"/>
  <outline>
    <contour>
      <point x="49" y="214" type="line"/>
      <point x="204" y="214" type="line"/>
      <point x="209" y="239" type="line"/>
      <point x="54" y="239" type="line"/>
    </contour>
    <component base="uni0294"/>
  </outline>
</glyph>
<glyph name="uni02A2" format="2">
  <advance width="302"/>
  <unicode hex="02A2"/>
  <anchor x="94" y="0" name="bottom"/>
  <anchor x="258" y="776" name="top"/>
  <outline>
    <contour>
      <point x="107" y="214" type="line"/>
      <point x="255" y="214" type="line"/>
      <point x="260" y="239" type="line"/>
      <point x="112" y="239" type="line"/>
    </contour>
    <component base="uni0295"/>
  </outline>
</glyph>
<glyph name="uni02D5" format="2">
  <advance width="263"/>
  <unicode hex="02D5"/>
  <outline>
    <contour>
      <point x="105" y="196" type="line"/>
      <point x="130" y="196" type="line"/>
      <point x="157" y="323" type="line"/>
      <point x="245" y="323" type="line"/>
      <point x="250" y="348" type="line"/>
      <point x="47" y="348" type="line"/>
      <point x="42" y="323" type="line"/>
      <point x="132" y="323" type="line"/>
    </contour>
  </outline>
</glyph>
<glyph name="uni03FC" format="2">
  <advance width="600"/>
  <unicode hex="03FC"/>
  <anchor x="185" y="-240" name="bottom"/>
  <anchor x="360" y="536" name="top"/>
  <outline>
    <contour>
      <point x="-51" y="-113" type="line"/>
      <point x="240" y="-113" type="line"/>
      <point x="245" y="-88" type="line"/>
      <point x="-46" y="-88" type="line"/>
    </contour>
    <component base="rho"/>
  </outline>
</glyph>
<glyph name="afii10088" format="2">
  <advance width="507"/>
  <unicode hex="0446"/>
  <anchor x="149" y="-228" name="bottom"/>
  <anchor x="311" y="536" name="top"/>
  <anchor x="543" y="536" name="topright"/>
  <outline>
    <contour>
      <point x="315" y="-228" type="curve" smooth="yes"/>
      <point x="411" y="-228"/>
      <point x="438" y="-191"/>
      <point x="484" y="30" type="curve"/>
      <point x="468" y="48" type="line"/>
      <point x="453" y="6" type="line"/>
      <point x="411" y="-200"/>
      <point x="367" y="-203"/>
      <point x="323" y="-203" type="curve" smooth="yes"/>
      <point x="309" y="-203"/>
      <point x="291" y="-203"/>
      <point x="274" y="-201" type="curve"/>
      <point x="270" y="-226" type="line"/>
      <point x="287" y="-227"/>
      <point x="300" y="-228"/>
    </contour>
    <component base="u"/>
  </outline>
</glyph>
<glyph name="afii10091" format="2">
  <advance width="798"/>
  <unicode hex="0449"/>
  <anchor x="341" y="0" name="bottom"/>
  <anchor x="455" y="536" name="top"/>
  <outline>
    <contour>
      <point x="605" y="-228" type="curve" smooth="yes"/>
      <point x="701" y="-228"/>
      <point x="728" y="-191"/>
      <point x="774" y="30" type="curve"/>
      <point x="758" y="48" type="line"/>
      <point x="743" y="6" type="line"/>
      <point x="701" y="-200"/>
      <point x="657" y="-203"/>
      <point x="613" y="-203" type="curve" smooth="yes"/>
      <point x="599" y="-203"/>
      <point x="581" y="-203"/>
      <point x="564" y="-201" type="curve"/>
      <point x="560" y="-226" type="line"/>
      <point x="577" y="-227"/>
      <point x="590" y="-228"/>
    </contour>
    <component base="afii10090"/>
  </outline>
</glyph>
<glyph name="uni0489" format="2">
  <advance width="956"/>
  <unicode hex="0489"/>
  <outline>
    <contour>
      <point x="685" y="459" type="line"/>
      <point x="724" y="488"/>
      <point x="781" y="526"/>
      <point x="830" y="556" type="curve"/>
      <point x="817" y="569" type="line"/>
      <point x="765" y="549"/>
      <point x="703" y="521"/>
      <point x="658" y="495" type="curve"/>
      <point x="657" y="487" type="line"/>
    </contour>
    <contour>
      <point x="140" y="-49" type="line"/>
      <point x="192" y="-29"/>
      <point x="254" y="-1"/>
      <point x="299" y="25" type="curve"/>
      <point x="300" y="33" type="line"/>
      <point x="272" y="61" type="line"/>
      <point x="233" y="32"/>
      <point x="176" y="-6"/>
      <point x="127" y="-36" type="curve"/>
    </contour>
    <contour>
      <point x="185" y="231" type="curve"/>
      <point x="192" y="236" type="line"/>
      <point x="192" y="275" type="line"/>
      <point x="144" y="282"/>
      <point x="76" y="296"/>
      <point x="21" y="309" type="curve"/>
      <point x="21" y="291" type="line"/>
      <point x="72" y="268"/>
      <point x="135" y="244"/>
    </contour>
    <contour>
      <point x="440" y="-187" type="curve"/>
      <point x="458" y="-187" type="line"/>
      <point x="481" y="-136"/>
      <point x="505" y="-73"/>
      <point x="518" y="-23" type="curve"/>
      <point x="513" y="-16" type="line"/>
      <point x="474" y="-16" type="line"/>
      <point x="467" y="-64"/>
      <point x="453" y="-132"/>
    </contour>
    <contour>
      <point x="774" y="-92" type="curve"/>
      <point x="787" y="-79" type="line"/>
      <point x="767" y="-27"/>
      <point x="739" y="35"/>
      <point x="713" y="80" type="curve"/>
      <point x="705" y="81" type="line"/>
      <point x="677" y="53" type="line"/>
      <point x="706" y="14"/>
      <point x="744" y="-43"/>
    </contour>
    <contour>
      <point x="251" y="438" type="line"/>
      <point x="279" y="466" type="line"/>
      <point x="250" y="505"/>
      <point x="212" y="562"/>
      <point x="182" y="611" type="curve"/>
      <point x="169" y="598" type="line"/>
      <point x="189" y="546"/>
      <point x="217" y="484"/>
      <point x="243" y="439" type="curve"/>
    </contour>
    <contour>
      <point x="936" y="231" type="curve"/>
      <point x="936" y="249" type="line"/>
      <point x="885" y="272"/>
      <point x="822" y="296"/>
      <point x="772" y="309" type="curve"/>
      <point x="765" y="304" type="line"/>
      <point x="765" y="265" type="line"/>
      <point x="813" y="258"/>
      <point x="881" y="244"/>
    </contour>
    <contour>
      <point x="445" y="557" type="line"/>
      <point x="484" y="557" type="line"/>
      <point x="491" y="605"/>
      <point x="505" y="673"/>
      <point x="518" y="728" type="curve"/>
      <point x="500" y="728" type="line"/>
      <point x="477" y="677"/>
      <point x="453" y="614"/>
      <point x="440" y="564" type="curve"/>
    </contour>
  </outline>
</glyph>
<glyph name="uni048E" format="2">
  <advance width="565"/>
  <unicode hex="048E"/>
  <anchor x="227" y="0" name="bottom"/>
  <anchor x="379" y="714" name="top"/>
  <anchor x="640" y="714" name="topright"/>
  <outline>
    <contour>
      <point x="509" y="238" type="line"/>
      <point x="530" y="252" type="line"/>
      <point x="374" y="475" type="line"/>
      <point x="353" y="461" type="line"/>
    </contour>
    <component base="P"/>
  </outline>
</glyph>
<glyph name="uni048F" format="2">
  <advance width="488"/>
  <unicode hex="048F"/>
  <anchor x="12" y="-240" name="bottom"/>
  <anchor x="287" y="536" name="top"/>
  <anchor x="496" y="536" name="topright"/>
  <outline>
    <contour>
      <point x="384" y="-70" type="line"/>
      <point x="405" y="-55" type="line"/>
      <point x="233" y="192" type="line"/>
      <point x="212" y="177" type="line"/>
    </contour>
    <component base="p"/>
  </outline>
</glyph>
<glyph name="uni04AD" format="2">
  <advance width="803"/>
  <unicode hex="04AD"/>
  <anchor x="296" y="-226" name="bottom"/>
  <anchor x="458" y="536" name="top"/>
  <anchor x="840" y="536" name="topright"/>
  <outline>
    <contour>
      <point x="613" y="-227" type="curve" smooth="yes"/>
      <point x="694" y="-227"/>
      <point x="749" y="-198"/>
      <point x="768" y="32" type="curve"/>
      <point x="752" y="50" type="line"/>
      <point x="742" y="12" type="line"/>
      <point x="722" y="-164"/>
      <point x="684" y="-207"/>
      <point x="613" y="-207" type="curve" smooth="yes"/>
      <point x="605" y="-207"/>
      <point x="600" y="-207"/>
      <point x="590" y="-206" type="curve"/>
      <point x="590" y="-226" type="line"/>
      <point x="599" y="-227"/>
      <point x="604" y="-227"/>
    </contour>
    <component base="m"/>
  </outline>
</glyph>
<glyph name="uni04B0" format="2">
  <advance width="538"/>
  <unicode hex="04B0"/>
  <anchor x="211" y="0" name="bottom"/>
  <anchor x="363" y="714" name="top"/>
  <anchor x="613" y="714" name="topright"/>
  <outline>
    <contour>
      <point x="104" y="216" type="line"/>
      <point x="406" y="216" type="line"/>
      <point x="411" y="241" type="line"/>
      <point x="109" y="241" type="line"/>
    </contour>
    <component base="Y"/>
  </outline>
</glyph>
<glyph name="uni04B1" format="2">
  <advance width="474"/>
  <unicode hex="04B1"/>
  <anchor x="145" y="-240" name="bottom"/>
  <anchor x="310" y="536" name="top"/>
  <outline>
    <contour>
      <point x="40" y="-25" type="line"/>
      <point x="318" y="-25" type="line"/>
      <point x="326" y="0" type="line"/>
      <point x="46" y="0" type="line"/>
    </contour>
    <component base="uni04AF"/>
  </outline>
</glyph>
<glyph name="uni04BE" format="2">
  <advance width="768"/>
  <unicode hex="04BE"/>
  <anchor x="283" y="-210" name="bottom"/>
  <anchor x="480" y="714" name="top"/>
  <outline>
    <contour>
      <point x="342" y="-210" type="curve"/>
      <point x="364" y="-210" type="line"/>
      <point x="403" y="-27"/>
      <point x="409" y="-17"/>
      <point x="472" y="-4" type="curve"/>
      <point x="288" y="21" type="line"/>
      <point x="328" y="-5"/>
      <point x="351" y="-21"/>
      <point x="359" y="-48" type="curve" smooth="yes"/>
      <point x="368" y="-79"/>
      <point x="361" y="-123"/>
    </contour>
    <component base="uni04BC"/>
  </outline>
</glyph>
<glyph name="uni04FE" format="2">
  <advance width="569"/>
  <unicode hex="04FE"/>
  <anchor x="228" y="0" name="bottom"/>
  <anchor x="380" y="714" name="top"/>
  <anchor x="644" y="714" name="topright"/>
  <outline>
    <contour>
      <point x="47" y="359" type="line"/>
      <point x="553" y="359" type="line"/>
      <point x="558" y="384" type="line"/>
      <point x="52" y="384" type="line"/>
    </contour>
    <component base="X"/>
  </outline>
</glyph>
<glyph name="uni04FF" format="2">
  <advance width="452"/>
  <unicode hex="04FF"/>
  <anchor x="180" y="0" name="bottom"/>
  <anchor x="294" y="536" name="top"/>
  <anchor x="483" y="536" name="topright"/>
  <outline>
    <contour>
      <point x="24" y="269" type="line"/>
      <point x="425" y="269" type="line"/>
      <point x="431" y="294" type="line"/>
      <point x="30" y="294" type="line"/>
    </contour>
    <component base="x"/>
  </outline>
</glyph>
<glyph name="uni051E" format="2">
  <advance width="615"/>
  <unicode hex="051E"/>
  <anchor x="250" y="0" name="bottom"/>
  <anchor x="402" y="714" name="top"/>
  <outline>
    <contour>
      <point x="500" y="455" type="line"/>
      <point x="517" y="474" type="line"/>
      <point x="326" y="630" type="line"/>
      <point x="310" y="612" type="line"/>
    </contour>
    <component base="afii10028"/>
  </outline>
</glyph>
<glyph name="uni1AB9" format="2">
  <unicode hex="1AB9"/>
  <anchor x="-385" y="0" name="_bottom"/>
  <anchor x="-406" y="-240" name="bottom"/>
  <outline>
    <contour>
      <point x="-443" y="-240" type="line"/>
      <point x="-343" y="26" type="line"/>
      <point x="-367" y="34" type="line"/>
      <point x="-467" y="-231" type="line"/>
    </contour>
  </outline>
</glyph>
<glyph name="uni1ABA" format="2">
  <unicode hex="1ABA"/>
  <anchor x="-402" y="0" name="_bottom"/>
  <anchor x="-424" y="-274" name="bottom"/>
  <outline>
    <contour>
      <point x="-446" y="-240" type="line"/>
      <point x="-346" y="26" type="line"/>
      <point x="-370" y="34" type="line"/>
      <point x="-470" y="-231" type="line"/>
    </contour>
    <contour>
      <point x="-456" y="-274" type="curve" smooth="yes"/>
      <point x="-429" y="-274"/>
      <point x="-409" y="-256"/>
      <point x="-409" y="-229" type="curve" smooth="yes"/>
      <point x="-409" y="-200"/>
      <point x="-429" y="-182"/>
      <point x="-456" y="-182" type="curve" smooth="yes"/>
      <point x="-480" y="-182"/>
      <point x="-502" y="-200"/>
      <point x="-502" y="-229" type="curve" smooth="yes"/>
      <point x="-502" y="-256"/>
      <point x="-480" y="-274"/>
    </contour>
  </outline>
</glyph>
<glyph name="uni1D03" format="2">
  <advance width="465"/>
  <unicode hex="1D03"/>
  <anchor x="175" y="0" name="bottom"/>
  <anchor x="289" y="536" name="top"/>
  <outline>
    <contour>
      <point x="24" y="271" type="line"/>
      <point x="439" y="271" type="line"/>
      <point x="444" y="293" type="line"/>
      <point x="29" y="293" type="line"/>
    </contour>
    <component base="uni0299"/>
  </outline>
</glyph>
<glyph name="uni1D06" format="2">
  <advance width="447"/>
  <unicode hex="1D06"/>
  <anchor x="174" y="0" name="bottom"/>
  <anchor x="288" y="536" name="top"/>
  <outline>
    <contour>
      <point x="8" y="266" type="line"/>
      <point x="318" y="266" type="line"/>
      <point x="322" y="291" type="line"/>
      <point x="13" y="291" type="line"/>
    </contour>
    <component base="uni1D05"/>
  </outline>
</glyph>
<glyph name="uni1D09" format="2">
  <advance width="189"/>
  <unicode hex="1D09"/>
  <anchor x="5" y="-157" name="bottom"/>
  <anchor x="152" y="536" name="top"/>
  <outline>
    <contour>
      <point x="-21" y="0" type="line"/>
      <point x="101" y="0" type="line"/>
      <point x="106" y="19" type="line"/>
      <point x="90" y="19" type="line" smooth="yes"/>
      <point x="74" y="19"/>
      <point x="65" y="22"/>
      <point x="65" y="39" type="curve" smooth="yes"/>
      <point x="65" y="48"/>
      <point x="68" y="61"/>
      <point x="72" y="79" type="curve" smooth="yes"/>
      <point x="150" y="453" type="line" smooth="yes"/>
      <point x="162" y="509"/>
      <point x="172" y="518"/>
      <point x="194" y="518" type="curve" smooth="yes"/>
      <point x="210" y="518" type="line"/>
      <point x="214" y="536" type="line"/>
      <point x="92" y="536" type="line"/>
      <point x="88" y="518" type="line"/>
      <point x="103" y="518" type="line" smooth="yes"/>
      <point x="120" y="518"/>
      <point x="129" y="514"/>
      <point x="128" y="496" type="curve" smooth="yes"/>
      <point x="128" y="488"/>
      <point x="127" y="475"/>
      <point x="123" y="457" type="curve" smooth="yes"/>
      <point x="45" y="83" type="line" smooth="yes"/>
      <point x="33" y="27"/>
      <point x="20" y="19"/>
      <point x="-1" y="19" type="curve" smooth="yes"/>
      <point x="-17" y="19" type="line"/>
    </contour>
    <contour>
      <point x="13" y="-135" type="curve" smooth="yes"/>
      <point x="28" y="-135"/>
      <point x="40" y="-129"/>
      <point x="47" y="-97" type="curve" smooth="yes"/>
      <point x="53" y="-66"/>
      <point x="45" y="-55"/>
      <point x="30" y="-55" type="curve" smooth="yes"/>
      <point x="16" y="-55"/>
      <point x="3" y="-61"/>
      <point x="-3" y="-92" type="curve" smooth="yes"/>
      <point x="-10" y="-124"/>
      <point x="-1" y="-135"/>
    </contour>
  </outline>
</glyph>
<glyph name="uni1D24" format="2">
  <advance width="390"/>
  <unicode hex="1D24"/>
  <anchor x="148" y="0" name="bottom"/>
  <anchor x="316" y="760" name="top"/>
  <outline>
    <contour>
      <point x="152" y="-9" type="curve" smooth="yes"/>
      <point x="272" y="-9"/>
      <point x="326" y="64"/>
      <point x="326" y="136" type="curve" smooth="yes"/>
      <point x="326" y="152"/>
      <point x="320" y="162"/>
      <point x="307" y="162" type="curve"/>
      <point x="299" y="82"/>
      <point x="263" y="16"/>
      <point x="152" y="16" type="curve" smooth="yes"/>
      <point x="80" y="16"/>
      <point x="26" y="52"/>
      <point x="26" y="127" type="curve" smooth="yes"/>
      <point x="26" y="207"/>
      <point x="94" y="272"/>
      <point x="229" y="316" type="curve"/>
      <point x="253" y="429" type="line"/>
      <point x="383" y="474"/>
      <point x="462" y="540"/>
      <point x="462" y="635" type="curve" smooth="yes"/>
      <point x="462" y="724"/>
      <point x="399" y="771"/>
      <point x="308" y="771" type="curve" smooth="yes"/>
      <point x="188" y="771"/>
      <point x="134" y="698"/>
      <point x="134" y="626" type="curve" smooth="yes"/>
      <point x="134" y="610"/>
      <point x="140" y="600"/>
      <point x="153" y="600" type="curve"/>
      <point x="161" y="680"/>
      <point x="197" y="746"/>
      <point x="308" y="746" type="curve" smooth="yes"/>
      <point x="380" y="746"/>
      <point x="434" y="710"/>
      <point x="434" y="635" type="curve" smooth="yes"/>
      <point x="434" y="555"/>
      <point x="366" y="490"/>
      <point x="231" y="446" type="curve"/>
      <point x="207" y="333" type="line"/>
      <point x="77" y="288"/>
      <point x="-2" y="222"/>
      <point x="-2" y="127" type="curve" smooth="yes"/>
      <point x="-2" y="38"/>
      <point x="61" y="-9"/>
    </contour>
  </outline>
</glyph>
<glyph name="uni1D7A" format="2">
  <advance width="728"/>
  <unicode hex="1D7A"/>
  <anchor x="94" y="0" name="bottom_1"/>
  <anchor x="429" y="0" name="bottom_2"/>
  <anchor x="208" y="268" name="center_1"/>
  <anchor x="543" y="268" name="center_2"/>
  <anchor x="234" y="659" name="top_1"/>
  <anchor x="591" y="760" name="top_2"/>
  <anchor x="339" y="536" name="topright_1"/>
  <anchor x="833" y="760" name="topright_2"/>
  <outline>
    <contour>
      <point x="-14" y="-19" type="line"/>
      <point x="17" y="-19" type="line"/>
      <point x="595" y="760" type="line"/>
      <point x="564" y="760" type="line"/>
    </contour>
    <component base="t"/>
    <component base="h" xOffset="222"/>
  </outline>
</glyph>
<glyph name="uni1D7F" format="2">
  <advance width="517"/>
  <unicode hex="1D7F"/>
  <anchor x="188" y="-2" name="bottom"/>
  <anchor x="260" y="422" name="top"/>
  <outline>
    <contour>
      <point x="0" y="267" type="line"/>
      <point x="517" y="267" type="line"/>
      <point x="522" y="292" type="line"/>
      <point x="5" y="292" type="line"/>
    </contour>
    <component base="uni028A"/>
  </outline>
</glyph>
<glyph name="uni1FCD" format="2">
  <advance width="57"/>
  <unicode hex="1FCD"/>
  <anchor x="77" y="536" name="_top"/>
  <anchor x="111" y="724" name="top"/>
  <outline>
    <contour>
      <point x="-17" y="550" type="line"/>
      <point x="47" y="566"/>
      <point x="92" y="609"/>
      <point x="92" y="680" type="curve" smooth="yes"/>
      <point x="92" y="705"/>
      <point x="80" y="724"/>
      <point x="59" y="724" type="curve" smooth="yes"/>
      <point x="39" y="724"/>
      <point x="19" y="707"/>
      <point x="19" y="685" type="curve" smooth="yes"/>
      <point x="19" y="654"/>
      <point x="61" y="662"/>
      <point x="61" y="635" type="curve" smooth="yes"/>
      <point x="61" y="608"/>
      <point x="23" y="578"/>
      <point x="-17" y="569" type="curve"/>
    </contour>
    <contour>
      <point x="194" y="564" type="curve"/>
      <point x="201" y="564" type="line"/>
      <point x="204" y="577" type="line"/>
      <point x="193" y="607"/>
      <point x="178" y="666"/>
      <point x="180" y="714" type="curve"/>
      <point x="139" y="714" type="line"/>
      <point x="137" y="704" type="line"/>
      <point x="139" y="684"/>
      <point x="170" y="597"/>
    </contour>
  </outline>
</glyph>
<glyph name="uni1FCE" format="2">
  <advance width="57"/>
  <unicode hex="1FCE"/>
  <anchor x="101" y="536" name="_top"/>
  <anchor x="124" y="724" name="top"/>
  <outline>
    <contour>
      <point x="-19" y="550" type="line"/>
      <point x="45" y="566"/>
      <point x="90" y="609"/>
      <point x="90" y="680" type="curve" smooth="yes"/>
      <point x="90" y="705"/>
      <point x="78" y="724"/>
      <point x="57" y="724" type="curve" smooth="yes"/>
      <point x="37" y="724"/>
      <point x="17" y="707"/>
      <point x="17" y="685" type="curve" smooth="yes"/>
      <point x="17" y="654"/>
      <point x="59" y="662"/>
      <point x="59" y="635" type="curve" smooth="yes"/>
      <point x="59" y="608"/>
      <point x="21" y="578"/>
      <point x="-19" y="569" type="curve"/>
    </contour>
    <contour>
      <point x="102" y="580" type="line"/>
      <point x="120" y="580" type="line"/>
      <point x="148" y="608"/>
      <point x="215" y="687"/>
      <point x="229" y="706" type="curve"/>
      <point x="230" y="714" type="line"/>
      <point x="191" y="714" type="line"/>
      <point x="176" y="683"/>
      <point x="122" y="610"/>
      <point x="103" y="584" type="curve"/>
    </contour>
  </outline>
</glyph>
<glyph name="uni1FDD" format="2">
  <advance width="57"/>
  <unicode hex="1FDD"/>
  <anchor x="86" y="536" name="_top"/>
  <anchor x="110" y="724" name="top"/>
  <outline>
    <contour>
      <point x="68" y="549" type="curve"/>
      <point x="72" y="569" type="line"/>
      <point x="42" y="576"/>
      <point x="20" y="592"/>
      <point x="20" y="622" type="curve" smooth="yes"/>
      <point x="20" y="670"/>
      <point x="87" y="649"/>
      <point x="87" y="698" type="curve" smooth="yes"/>
      <point x="87" y="714"/>
      <point x="77" y="724"/>
      <point x="61" y="724" type="curve" smooth="yes"/>
      <point x="25" y="724"/>
      <point x="-1" y="674"/>
      <point x="-1" y="625" type="curve" smooth="yes"/>
      <point x="-1" y="589"/>
      <point x="21" y="563"/>
    </contour>
    <contour>
      <point x="189" y="564" type="curve"/>
      <point x="196" y="564" type="line"/>
      <point x="199" y="577" type="line"/>
      <point x="188" y="607"/>
      <point x="173" y="666"/>
      <point x="175" y="714" type="curve"/>
      <point x="134" y="714" type="line"/>
      <point x="132" y="704" type="line"/>
      <point x="134" y="684"/>
      <point x="165" y="597"/>
    </contour>
  </outline>
</glyph>
<glyph name="uni1FDE" format="2">
  <advance width="57"/>
  <unicode hex="1FDE"/>
  <anchor x="92" y="536" name="_top"/>
  <anchor x="116" y="724" name="top"/>
  <outline>
    <contour>
      <point x="102" y="580" type="line"/>
      <point x="120" y="580" type="line"/>
      <point x="148" y="608"/>
      <point x="215" y="687"/>
      <point x="229" y="706" type="curve"/>
      <point x="230" y="714" type="line"/>
      <point x="191" y="714" type="line"/>
      <point x="176" y="683"/>
      <point x="122" y="610"/>
      <point x="103" y="584" type="curve"/>
    </contour>
    <contour>
      <point x="61" y="549" type="curve"/>
      <point x="65" y="569" type="line"/>
      <point x="35" y="576"/>
      <point x="13" y="592"/>
      <point x="13" y="622" type="curve" smooth="yes"/>
      <point x="13" y="670"/>
      <point x="80" y="649"/>
      <point x="80" y="698" type="curve" smooth="yes"/>
      <point x="80" y="714"/>
      <point x="70" y="724"/>
      <point x="54" y="724" type="curve" smooth="yes"/>
      <point x="18" y="724"/>
      <point x="-8" y="674"/>
      <point x="-8" y="625" type="curve" smooth="yes"/>
      <point x="-8" y="589"/>
      <point x="14" y="563"/>
    </contour>
  </outline>
</glyph>
<glyph name="uni1FDF" format="2">
  <advance width="400"/>
  <unicode hex="1FDF"/>
  <anchor x="232" y="536" name="_top"/>
  <anchor x="272" y="850" name="top"/>
  <outline>
    <contour>
      <point x="88" y="737" type="curve"/>
      <point x="110" y="737" type="line"/>
      <point x="119" y="764"/>
      <point x="134" y="795"/>
      <point x="174" y="795" type="curve" smooth="yes"/>
      <point x="227" y="795"/>
      <point x="263" y="742"/>
      <point x="325" y="742" type="curve" smooth="yes"/>
      <point x="378" y="742"/>
      <point x="401" y="782"/>
      <point x="414" y="821" type="curve"/>
      <point x="392" y="821" type="line"/>
      <point x="382" y="794"/>
      <point x="367" y="768"/>
      <point x="330" y="768" type="curve" smooth="yes"/>
      <point x="278" y="768"/>
      <point x="249" y="821"/>
      <point x="182" y="821" type="curve" smooth="yes"/>
      <point x="127" y="821"/>
      <point x="99" y="772"/>
    </contour>
    <contour>
      <point x="266" y="586" type="curve"/>
      <point x="269" y="604" type="line"/>
      <point x="229" y="602"/>
      <point x="204" y="616"/>
      <point x="209" y="641" type="curve" smooth="yes"/>
      <point x="215" y="667"/>
      <point x="253" y="658"/>
      <point x="259" y="686" type="curve" smooth="yes"/>
      <point x="262" y="700"/>
      <point x="255" y="710"/>
      <point x="237" y="710" type="curve" smooth="yes"/>
      <point x="209" y="710"/>
      <point x="189" y="683"/>
      <point x="184" y="658" type="curve" smooth="yes"/>
      <point x="175" y="618"/>
      <point x="197" y="585"/>
    </contour>
  </outline>
</glyph>
<glyph name="uni1FEF" format="2">
  <advance width="98"/>
  <unicode hex="1FEF"/>
  <anchor x="90" y="536" name="_top"/>
  <anchor x="124" y="757" name="top"/>
  <outline>
    <contour>
      <point x="160" y="604" type="curve"/>
      <point x="167" y="604" type="line"/>
      <point x="170" y="617" type="line"/>
      <point x="159" y="647"/>
      <point x="145" y="706"/>
      <point x="145" y="754" type="curve"/>
      <point x="105" y="754" type="line"/>
      <point x="103" y="744" type="line"/>
      <point x="105" y="724"/>
      <point x="136" y="637"/>
    </contour>
  </outline>
</glyph>
<glyph name="uni1FFD" format="2">
  <advance width="110"/>
  <unicode hex="1FFD"/>
  <anchor x="151" y="536" name="_top"/>
  <anchor x="180" y="737" name="top"/>
  <outline>
    <contour>
      <point x="76" y="602" type="line"/>
      <point x="94" y="602" type="line"/>
      <point x="122" y="630"/>
      <point x="189" y="709"/>
      <point x="203" y="728" type="curve"/>
      <point x="204" y="736" type="line"/>
      <point x="162" y="736" type="line"/>
      <point x="147" y="705"/>
      <point x="96" y="632"/>
      <point x="77" y="606" type="curve"/>
    </contour>
  </outline>
</glyph>
<glyph name="uni2067" format="2">
  <advance width="1000"/>
  <unicode hex="2067"/>
  <outline>
    <contour>
      <point x="175" y="164" type="line"/>
      <point x="313" y="164" type="line"/>
      <point x="313" y="185" type="line"/>
      <point x="296" y="185" type="line" smooth="yes"/>
      <point x="285" y="185"/>
      <point x="275" y="188"/>
      <point x="275" y="209" type="curve" smooth="yes"/>
      <point x="275" y="288" type="line"/>
      <point x="302" y="288" type="line"/>
      <point x="349" y="200" type="line" smooth="yes"/>
      <point x="365" y="170"/>
      <point x="387" y="164"/>
      <point x="435" y="164" type="curve" smooth="yes"/>
      <point x="448" y="164" type="line"/>
      <point x="448" y="185" type="line"/>
      <point x="446" y="185" type="line" smooth="yes"/>
      <point x="431" y="185"/>
      <point x="420" y="195"/>
      <point x="406" y="218" type="curve" smooth="yes"/>
      <point x="359" y="300" type="line"/>
      <point x="385" y="311"/>
      <point x="413" y="334"/>
      <point x="413" y="376" type="curve" smooth="yes"/>
      <point x="413" y="424"/>
      <point x="379" y="450"/>
      <point x="304" y="450" type="curve" smooth="yes"/>
      <point x="175" y="450" type="line"/>
      <point x="175" y="429" type="line"/>
      <point x="192" y="429" type="line" smooth="yes"/>
      <point x="203" y="429"/>
      <point x="212" y="426"/>
      <point x="212" y="405" type="curve" smooth="yes"/>
      <point x="212" y="209" type="line" smooth="yes"/>
      <point x="212" y="188"/>
      <point x="203" y="185"/>
      <point x="192" y="185" type="curve" smooth="yes"/>
      <point x="175" y="185" type="line"/>
    </contour>
    <contour>
      <point x="51" y="-187" type="line"/>
      <point x="199" y="-187" type="line"/>
      <point x="199" y="-134" type="line"/>
      <point x="105" y="-134" type="line"/>
      <point x="105" y="-39" type="line"/>
      <point x="51" y="-39" type="line"/>
    </contour>
    <contour>
      <point x="51" y="19" type="line"/>
      <point x="105" y="19" type="line"/>
      <point x="105" y="151" type="line"/>
      <point x="51" y="151" type="line"/>
    </contour>
    <contour>
      <point x="258" y="-187" type="line"/>
      <point x="390" y="-187" type="line"/>
      <point x="390" y="-134" type="line"/>
      <point x="258" y="-134" type="line"/>
    </contour>
    <contour>
      <point x="51" y="210" type="line"/>
      <point x="105" y="210" type="line"/>
      <point x="105" y="343" type="line"/>
      <point x="51" y="343" type="line"/>
    </contour>
    <contour>
      <point x="449" y="-187" type="line"/>
      <point x="582" y="-187" type="line"/>
      <point x="582" y="-134" type="line"/>
      <point x="449" y="-134" type="line"/>
    </contour>
    <contour>
      <point x="640" y="-187" type="line"/>
      <point x="773" y="-187" type="line"/>
      <point x="773" y="-134" type="line"/>
      <point x="640" y="-134" type="line"/>
    </contour>
    <contour>
      <point x="51" y="402" type="line"/>
      <point x="105" y="402" type="line"/>
      <point x="105" y="534" type="line"/>
      <point x="51" y="534" type="line"/>
    </contour>
    <contour>
      <point x="275" y="312" type="line"/>
      <point x="275" y="427" type="line"/>
      <point x="297" y="427" type="line" smooth="yes"/>
      <point x="332" y="427"/>
      <point x="346" y="411"/>
      <point x="346" y="371" type="curve" smooth="yes"/>
      <point x="346" y="331"/>
      <point x="334" y="312"/>
      <point x="298" y="312" type="curve" smooth="yes"/>
    </contour>
    <contour>
      <point x="51" y="593" type="line"/>
      <point x="105" y="593" type="line"/>
      <point x="105" y="687" type="line"/>
      <point x="199" y="687" type="line"/>
      <point x="199" y="741" type="line"/>
      <point x="51" y="741" type="line"/>
    </contour>
    <contour>
      <point x="831" y="-187" type="line"/>
      <point x="979" y="-187" type="line"/>
      <point x="979" y="-39" type="line"/>
      <point x="926" y="-39" type="line"/>
      <point x="926" y="-134" type="line"/>
      <point x="831" y="-134" type="line"/>
    </contour>
    <contour>
      <point x="457" y="164" type="line"/>
      <point x="691" y="164" type="line"/>
      <point x="694" y="253" type="line"/>
      <point x="672" y="253" type="line"/>
      <point x="665" y="223" type="line" smooth="yes"/>
      <point x="660" y="201"/>
      <point x="650" y="188"/>
      <point x="632" y="188" type="curve" smooth="yes"/>
      <point x="558" y="188" type="line"/>
      <point x="558" y="405" type="line"/>
      <point x="558" y="426"/>
      <point x="567" y="429"/>
      <point x="578" y="429" type="curve" smooth="yes"/>
      <point x="595" y="429" type="line"/>
      <point x="595" y="450" type="line"/>
      <point x="457" y="450" type="line"/>
      <point x="457" y="429" type="line"/>
      <point x="474" y="429" type="line" smooth="yes"/>
      <point x="486" y="429"/>
      <point x="494" y="426"/>
      <point x="494" y="403" type="curve" smooth="yes"/>
      <point x="494" y="211" type="line" smooth="yes"/>
      <point x="494" y="188"/>
      <point x="486" y="185"/>
      <point x="474" y="185" type="curve" smooth="yes"/>
      <point x="457" y="185" type="line"/>
    </contour>
    <contour>
      <point x="926" y="19" type="line"/>
      <point x="979" y="19" type="line"/>
      <point x="979" y="151" type="line"/>
      <point x="926" y="151" type="line"/>
    </contour>
    <contour>
      <point x="258" y="687" type="line"/>
      <point x="390" y="687" type="line"/>
      <point x="390" y="741" type="line"/>
      <point x="258" y="741" type="line"/>
    </contour>
    <contour>
      <point x="718" y="164" type="line"/>
      <point x="856" y="164" type="line"/>
      <point x="856" y="185" type="line"/>
      <point x="839" y="185" type="line"/>
      <point x="828" y="185"/>
      <point x="819" y="188"/>
      <point x="819" y="211" type="curve"/>
      <point x="819" y="403" type="line"/>
      <point x="819" y="426"/>
      <point x="828" y="429"/>
      <point x="839" y="429" type="curve"/>
      <point x="856" y="429" type="line"/>
      <point x="856" y="450" type="line"/>
      <point x="718" y="450" type="line"/>
      <point x="718" y="429" type="line"/>
      <point x="735" y="429" type="line"/>
      <point x="747" y="429"/>
      <point x="755" y="426"/>
      <point x="755" y="403" type="curve"/>
      <point x="755" y="211" type="line"/>
      <point x="755" y="188"/>
      <point x="747" y="185"/>
      <point x="735" y="185" type="curve"/>
      <point x="718" y="185" type="line"/>
    </contour>
    <contour>
      <point x="926" y="210" type="line"/>
      <point x="979" y="210" type="line"/>
      <point x="979" y="343" type="line"/>
      <point x="926" y="343" type="line"/>
    </contour>
    <contour>
      <point x="449" y="687" type="line"/>
      <point x="582" y="687" type="line"/>
      <point x="582" y="741" type="line"/>
      <point x="449" y="741" type="line"/>
    </contour>
    <contour>
      <point x="926" y="402" type="line"/>
      <point x="979" y="402" type="line"/>
      <point x="979" y="534" type="line"/>
      <point x="926" y="534" type="line"/>
    </contour>
    <contour>
      <point x="640" y="687" type="line"/>
      <point x="773" y="687" type="line"/>
      <point x="773" y="741" type="line"/>
      <point x="640" y="741" type="line"/>
    </contour>
    <contour>
      <point x="926" y="593" type="line"/>
      <point x="979" y="593" type="line"/>
      <point x="979" y="741" type="line"/>
      <point x="831" y="741" type="line"/>
      <point x="831" y="687" type="line"/>
      <point x="926" y="687" type="line"/>
    </contour>
  </outline>
</glyph>
<glyph name="plussuperior" format="2">
  <advance width="385"/>
  <unicode hex="207A"/>
  <outline>
    <contour>
      <point x="223" y="330" type="line"/>
      <point x="251" y="330" type="line"/>
      <point x="251" y="469" type="line"/>
      <point x="390" y="469" type="line"/>
      <point x="390" y="494" type="line"/>
      <point x="251" y="494" type="line"/>
      <point x="251" y="633" type="line"/>
      <point x="223" y="633" type="line"/>
      <point x="223" y="494" type="line"/>
      <point x="85" y="494" type="line"/>
      <point x="85" y="469" type="line"/>
      <point x="223" y="469" type="line"/>
    </contour>
  </outline>
</glyph>
<glyph name="minussuperior" format="2">
  <advance width="385"/>
  <unicode hex="207B"/>
  <outline>
    <contour>
      <point x="85" y="467" type="line"/>
      <point x="390" y="467" type="line"/>
      <point x="390" y="492" type="line"/>
      <point x="85" y="492" type="line"/>
    </contour>
  </outline>
</glyph>
<glyph name="equalsuperior" format="2">
  <advance width="385"/>
  <unicode hex="207C"/>
  <outline>
    <contour>
      <point x="85" y="542" type="line"/>
      <point x="390" y="542" type="line"/>
      <point x="390" y="567" type="line"/>
      <point x="85" y="567" type="line"/>
    </contour>
    <contour>
      <point x="85" y="391" type="line"/>
      <point x="390" y="391" type="line"/>
      <point x="390" y="416" type="line"/>
      <point x="85" y="416" type="line"/>
    </contour>
  </outline>
</glyph>
<glyph name="parenleftsuperior" format="2">
  <advance width="250"/>
  <unicode hex="207D"/>
  <outline>
    <contour>
      <point x="205" y="197" type="curve"/>
      <point x="210" y="222" type="line"/>
      <point x="138" y="263"/>
      <point x="103" y="353"/>
      <point x="103" y="442" type="curve" smooth="yes"/>
      <point x="103" y="581"/>
      <point x="172" y="721"/>
      <point x="325" y="763" type="curve"/>
      <point x="331" y="789" type="line"/>
      <point x="166" y="750"/>
      <point x="75" y="593"/>
      <point x="75" y="438" type="curve" smooth="yes"/>
      <point x="75" y="339"/>
      <point x="114" y="240"/>
    </contour>
  </outline>
</glyph>
<glyph name="parenrightsuperior" format="2">
  <advance width="250"/>
  <unicode hex="207E"/>
  <outline>
    <contour>
      <point x="15" y="198" type="line"/>
      <point x="180" y="237"/>
      <point x="271" y="394"/>
      <point x="271" y="549" type="curve" smooth="yes"/>
      <point x="271" y="648"/>
      <point x="232" y="747"/>
      <point x="141" y="790" type="curve"/>
      <point x="136" y="765" type="line"/>
      <point x="208" y="724"/>
      <point x="243" y="634"/>
      <point x="243" y="545" type="curve" smooth="yes"/>
      <point x="243" y="406"/>
      <point x="174" y="266"/>
      <point x="21" y="224" type="curve"/>
    </contour>
  </outline>
</glyph>
<glyph name="parenleftinferior" format="2">
  <advance width="250"/>
  <unicode hex="208D"/>
  <outline>
    <contour>
      <point x="101" y="-290" type="curve"/>
      <point x="106" y="-265" type="line"/>
      <point x="34" y="-224"/>
      <point x="-1" y="-134"/>
      <point x="-1" y="-45" type="curve" smooth="yes"/>
      <point x="-1" y="94"/>
      <point x="68" y="234"/>
      <point x="221" y="276" type="curve"/>
      <point x="227" y="302" type="line"/>
      <point x="62" y="263"/>
      <point x="-29" y="106"/>
      <point x="-29" y="-49" type="curve" smooth="yes"/>
      <point x="-29" y="-148"/>
      <point x="10" y="-247"/>
    </contour>
  </outline>
</glyph>
<glyph name="parenrightinferior" format="2">
  <advance width="250"/>
  <unicode hex="208E"/>
  <outline>
    <contour>
      <point x="-89" y="-290" type="line"/>
      <point x="76" y="-251"/>
      <point x="167" y="-94"/>
      <point x="167" y="61" type="curve" smooth="yes"/>
      <point x="167" y="160"/>
      <point x="128" y="259"/>
      <point x="37" y="302" type="curve"/>
      <point x="32" y="277" type="line"/>
      <point x="104" y="236"/>
      <point x="139" y="146"/>
      <point x="139" y="57" type="curve" smooth="yes"/>
      <point x="139" y="-82"/>
      <point x="70" y="-222"/>
      <point x="-83" y="-264" type="curve"/>
    </contour>
  </outline>
</glyph>
<glyph name="uni20A5" format="2">
  <advance width="803"/>
  <unicode hex="20A5"/>
  <anchor x="344" y="0" name="bottom"/>
  <anchor x="458" y="536" name="top"/>
  <anchor x="840" y="536" name="topright"/>
  <outline>
    <contour>
      <point x="208" y="-96" type="line"/>
      <point x="235" y="-96" type="line"/>
      <point x="560" y="666" type="line"/>
      <point x="533" y="666" type="line"/>
    </contour>
    <component base="m"/>
  </outline>
</glyph>
<glyph name="uni20A9" format="2">
  <advance width="989"/>
  <unicode hex="20A9"/>
  <anchor x="452" y="0" name="bottom"/>
  <anchor x="604" y="714" name="top"/>
  <anchor x="1092" y="714" name="topright"/>
  <outline>
    <contour>
      <point x="73" y="384" type="line"/>
      <point x="954" y="384" type="line"/>
      <point x="960" y="409" type="line"/>
      <point x="79" y="409" type="line"/>
    </contour>
    <contour>
      <point x="48" y="269" type="line"/>
      <point x="929" y="269" type="line"/>
      <point x="935" y="294" type="line"/>
      <point x="54" y="294" type="line"/>
    </contour>
    <component base="W"/>
  </outline>
</glyph>
<glyph name="uni20B4" format="2">
  <advance width="467"/>
  <unicode hex="20B4"/>
  <anchor x="185" y="0" name="bottom"/>
  <anchor x="337" y="714" name="top"/>
  <outline>
    <contour>
      <point x="21" y="278" type="line"/>
      <point x="449" y="278" type="line"/>
      <point x="454" y="303" type="line"/>
      <point x="26" y="303" type="line"/>
    </contour>
    <contour>
      <point x="50" y="414" type="line"/>
      <point x="478" y="414" type="line"/>
      <point x="484" y="439" type="line"/>
      <point x="56" y="439" type="line"/>
    </contour>
    <component base="uni01A7" xOffset="-11"/>
  </outline>
</glyph>
<glyph name="uni20B5" format="2">
  <advance width="574"/>
  <unicode hex="20B5"/>
  <anchor x="261" y="0" name="bottom"/>
  <anchor x="404" y="714" name="top"/>
  <anchor x="649" y="714" name="topright"/>
  <outline>
    <contour>
      <point x="230" y="-95" type="line"/>
      <point x="258" y="-95" type="line"/>
      <point x="443" y="758" type="line"/>
      <point x="415" y="758" type="line"/>
    </contour>
    <component base="C"/>
  </outline>
</glyph>
<glyph name="planckconstantovertwopi" format="2">
  <advance width="506"/>
  <unicode hex="210F"/>
  <anchor x="207" y="0" name="bottom"/>
  <anchor x="321" y="268" name="center"/>
  <anchor x="369" y="760" name="top"/>
  <anchor x="611" y="760" name="topright"/>
  <outline>
    <contour>
      <point x="65" y="495" type="line"/>
      <point x="294" y="654" type="line"/>
      <point x="303" y="691" type="line"/>
      <point x="74" y="530" type="line"/>
    </contour>
    <component base="h"/>
  </outline>
</glyph>
<glyph name="reversedSansSerifL" format="2">
  <advance width="606"/>
  <unicode hex="2143"/>
  <outline>
    <contour>
      <point x="32" y="0" type="line"/>
      <point x="495" y="0" type="line"/>
      <point x="499" y="20" type="line"/>
      <point x="466" y="20" type="line" smooth="yes"/>
      <point x="407" y="20"/>
      <point x="402" y="25"/>
      <point x="417" y="95" type="curve" smooth="yes"/>
      <point x="525" y="606" type="line" smooth="yes"/>
      <point x="543" y="684"/>
      <point x="551" y="694"/>
      <point x="599" y="694" type="curve" smooth="yes"/>
      <point x="642" y="694" type="line"/>
      <point x="647" y="714" type="line"/>
      <point x="421" y="714" type="line"/>
      <point x="416" y="694" type="line"/>
      <point x="459" y="694" type="line" smooth="yes"/>
      <point x="509" y="694"/>
      <point x="514" y="683"/>
      <point x="497" y="606" type="curve" smooth="yes"/>
      <point x="374" y="25" type="line"/>
      <point x="137" y="25" type="line" smooth="yes"/>
      <point x="74" y="25"/>
      <point x="65" y="31"/>
      <point x="79" y="113" type="curve" smooth="yes"/>
      <point x="94" y="205" type="line"/>
      <point x="69" y="205" type="line"/>
    </contour>
  </outline>
</glyph>
<glyph name="uni2C63" format="2">
  <advance width="565"/>
  <unicode hex="2C63"/>
  <anchor x="227" y="0" name="bottom"/>
  <anchor x="379" y="714" name="top"/>
  <anchor x="640" y="714" name="topright"/>
  <outline>
    <contour>
      <point x="72" y="489" type="line"/>
      <point x="354" y="489" type="line"/>
      <point x="360" y="514" type="line"/>
      <point x="78" y="514" type="line"/>
    </contour>
    <component base="P"/>
  </outline>
</glyph>
<glyph name="uni2C65" format="2">
  <advance width="470"/>
  <unicode hex="2C65"/>
  <anchor x="137" y="-209" name="bottom"/>
  <anchor x="333" y="714" name="top"/>
  <anchor x="518" y="536" name="topright"/>
  <outline>
    <contour>
      <point x="65" y="-209" type="line"/>
      <point x="91" y="-209" type="line"/>
      <point x="371" y="714" type="line"/>
      <point x="345" y="714" type="line"/>
    </contour>
    <component base="a"/>
  </outline>
</glyph>
<glyph name="uni2C66" format="2">
  <advance width="305"/>
  <unicode hex="2C66"/>
  <anchor x="50" y="-209" name="bottom"/>
  <anchor x="246" y="714" name="top"/>
  <anchor x="208" y="268" name="center"/>
  <anchor x="339" y="536" name="topright"/>
  <outline>
    <contour>
      <point x="55" y="-209" type="line"/>
      <point x="81" y="-209" type="line"/>
      <point x="328" y="714" type="line"/>
      <point x="302" y="714" type="line"/>
    </contour>
    <component base="t"/>
  </outline>
</glyph>
<glyph name="uni2DF5" format="2">
  <unicode hex="2DF5"/>
  <anchor x="57" y="536" name="_top"/>
  <anchor x="74" y="619" name="bottom"/>
  <anchor x="119" y="835" name="top"/>
  <outline>
    <contour>
      <point x="282" y="834" type="line"/>
      <point x="74" y="834" type="line" smooth="yes"/>
      <point x="-13" y="834"/>
      <point x="-69" y="769"/>
      <point x="-69" y="699" type="curve" smooth="yes"/>
      <point x="-69" y="643"/>
      <point x="-36" y="616"/>
      <point x="4" y="616" type="curve" smooth="yes"/>
      <point x="43" y="616"/>
      <point x="69" y="638"/>
      <point x="69" y="653" type="curve" smooth="yes"/>
      <point x="69" y="655"/>
      <point x="68" y="657"/>
      <point x="67" y="658" type="curve"/>
      <point x="54" y="640"/>
      <point x="31" y="627"/>
      <point x="4" y="627" type="curve" smooth="yes"/>
      <point x="-29" y="627"/>
      <point x="-56" y="653"/>
      <point x="-56" y="699" type="curve" smooth="yes"/>
      <point x="-56" y="762"/>
      <point x="-5" y="824"/>
      <point x="72" y="824" type="curve" smooth="yes"/>
      <point x="176" y="824" type="line"/>
      <point x="141" y="658" type="line" smooth="yes"/>
      <point x="135" y="630"/>
      <point x="133" y="628"/>
      <point x="101" y="628" type="curve" smooth="yes"/>
      <point x="87" y="628" type="line"/>
      <point x="85" y="620" type="line"/>
      <point x="194" y="620" type="line"/>
      <point x="196" y="628" type="line"/>
      <point x="182" y="628" type="line" smooth="yes"/>
      <point x="150" y="628"/>
      <point x="148" y="630"/>
      <point x="154" y="658" type="curve" smooth="yes"/>
      <point x="189" y="824" type="line"/>
      <point x="247" y="824" type="line" smooth="yes"/>
      <point x="265" y="824"/>
      <point x="270" y="822"/>
      <point x="267" y="805" type="curve"/>
      <point x="263" y="775" type="line"/>
      <point x="272" y="775" type="line"/>
    </contour>
  </outline>
</glyph>
<glyph name="uniA643" format="2">
  <advance width="410"/>
  <unicode hex="A643"/>
  <outline>
    <contour>
      <point x="69" y="262" type="line"/>
      <point x="353" y="262" type="line"/>
      <point x="359" y="287" type="line"/>
      <point x="75" y="287" type="line"/>
    </contour>
    <component base="uniA641"/>
  </outline>
</glyph>
<glyph name="uniA671" format="2">
  <unicode hex="A671"/>
  <outline>
    <contour>
      <point x="-270" y="579" type="line"/>
      <point x="-245" y="579" type="line"/>
      <point x="-245" y="700" type="line"/>
      <point x="245" y="700" type="line"/>
      <point x="245" y="579" type="line"/>
      <point x="270" y="579" type="line"/>
      <point x="270" y="732" type="line"/>
      <point x="-270" y="732" type="line"/>
    </contour>
    <contour>
      <point x="-270" y="-196" type="line"/>
      <point x="270" y="-196" type="line"/>
      <point x="270" y="-43" type="line"/>
      <point x="245" y="-43" type="line"/>
      <point x="245" y="-164" type="line"/>
      <point x="-245" y="-164" type="line"/>
      <point x="-245" y="-43" type="line"/>
      <point x="-270" y="-43" type="line"/>
    </contour>
  </outline>
</glyph>
<glyph name="uniA740" format="2">
  <advance width="647"/>
  <unicode hex="A740"/>
  <anchor x="267" y="0" name="bottom"/>
  <anchor x="419" y="714" name="top"/>
  <anchor x="722" y="714" name="topright"/>
  <outline>
    <contour>
      <point x="110" y="570" type="line"/>
      <point x="332" y="570" type="line"/>
      <point x="338" y="595" type="line"/>
      <point x="116" y="595" type="line"/>
    </contour>
    <component base="K"/>
  </outline>
</glyph>
<glyph name="uniA741" format="2">
  <advance width="533"/>
  <unicode hex="A741"/>
  <anchor x="210" y="0" name="bottom"/>
  <anchor x="372" y="760" name="top"/>
  <anchor x="617" y="760" name="topright"/>
  <outline>
    <contour>
      <point x="83" y="606" type="line"/>
      <point x="321" y="606" type="line"/>
      <point x="326" y="631" type="line"/>
      <point x="88" y="631" type="line"/>
    </contour>
    <component base="k"/>
  </outline>
</glyph>
<glyph name="uniA744" format="2">
  <advance width="647"/>
  <unicode hex="A744"/>
  <anchor x="267" y="0" name="bottom"/>
  <anchor x="419" y="714" name="top"/>
  <anchor x="722" y="714" name="topright"/>
  <outline>
    <contour>
      <point x="305" y="119" type="line"/>
      <point x="535" y="267" type="line"/>
      <point x="523" y="289" type="line"/>
      <point x="291" y="140" type="line"/>
    </contour>
    <contour>
      <point x="110" y="570" type="line"/>
      <point x="332" y="570" type="line"/>
      <point x="338" y="595" type="line"/>
      <point x="116" y="595" type="line"/>
    </contour>
    <component base="K"/>
  </outline>
</glyph>
<glyph name="uniA749" format="2">
  <advance width="239"/>
  <unicode hex="A749"/>
  <anchor x="65" y="0" name="bottom"/>
  <anchor x="179" y="268" name="center"/>
  <anchor x="227" y="760" name="top"/>
  <anchor x="328" y="760" name="topright"/>
  <outline>
    <contour>
      <point x="86" y="606" type="line"/>
      <point x="280" y="606" type="line"/>
      <point x="285" y="631" type="line"/>
      <point x="92" y="631" type="line"/>
    </contour>
    <component base="l"/>
  </outline>
</glyph>
<glyph name="uniA74A" format="2">
  <advance width="677"/>
  <unicode hex="A74A"/>
  <anchor x="295" y="0" name="bottom"/>
  <anchor x="390" y="357" name="center"/>
  <anchor x="447" y="714" name="top"/>
  <anchor x="765" y="714" name="topright"/>
  <outline>
    <contour>
      <point x="24" y="362" type="line"/>
      <point x="693" y="362" type="line"/>
      <point x="697" y="387" type="line"/>
      <point x="30" y="387" type="line"/>
    </contour>
    <component base="O"/>
  </outline>
</glyph>
<glyph name="uniA74B" format="2">
  <advance width="517"/>
  <unicode hex="A74B"/>
  <anchor x="202" y="0" name="bottom"/>
  <anchor x="316" y="268" name="center"/>
  <anchor x="316" y="536" name="top"/>
  <anchor x="554" y="536" name="topright"/>
  <outline>
    <contour>
      <point x="16" y="263" type="line"/>
      <point x="500" y="263" type="line"/>
      <point x="504" y="288" type="line"/>
      <point x="22" y="288" type="line"/>
    </contour>
    <component base="o"/>
  </outline>
</glyph>
<glyph name="uniA757" format="2">
  <advance width="469"/>
  <unicode hex="A757"/>
  <anchor x="120" y="-240" name="bottom"/>
  <anchor x="285" y="536" name="top"/>
  <anchor x="499" y="536" name="topright"/>
  <outline>
    <contour>
      <point x="164" y="-120" type="line"/>
      <point x="409" y="-120" type="line"/>
      <point x="414" y="-95" type="line"/>
      <point x="169" y="-95" type="line"/>
    </contour>
    <component base="q"/>
  </outline>
</glyph>
<glyph name="uniA75F" format="2">
  <advance width="474"/>
  <unicode hex="A75F"/>
  <anchor x="179" y="0" name="bottom"/>
  <anchor x="293" y="536" name="top"/>
  <anchor x="511" y="536" name="topright"/>
  <outline>
    <contour>
      <point x="49" y="-50" type="line"/>
      <point x="76" y="-50" type="line"/>
      <point x="314" y="596" type="line"/>
      <point x="285" y="596" type="line"/>
    </contour>
    <component base="v"/>
  </outline>
</glyph>
<glyph name="uniA764" format="2">
  <advance width="561"/>
  <unicode hex="A764"/>
  <outline>
    <contour>
      <point x="-19" y="0" type="line"/>
      <point x="207" y="0" type="line"/>
      <point x="211" y="20" type="line"/>
      <point x="168" y="20" type="line" smooth="yes"/>
      <point x="135" y="20"/>
      <point x="122" y="25"/>
      <point x="122" y="51" type="curve" smooth="yes"/>
      <point x="122" y="64"/>
      <point x="125" y="81"/>
      <point x="131" y="108" type="curve" smooth="yes"/>
      <point x="133" y="117" type="line"/>
      <point x="203" y="117" type="line" smooth="yes"/>
      <point x="462" y="117"/>
      <point x="511" y="254"/>
      <point x="511" y="353" type="curve" smooth="yes"/>
      <point x="511" y="480"/>
      <point x="435" y="544"/>
      <point x="309" y="544" type="curve" smooth="yes"/>
      <point x="224" y="544" type="line"/>
      <point x="234" y="593" type="line"/>
      <point x="349" y="593" type="line"/>
      <point x="355" y="618" type="line"/>
      <point x="240" y="618" type="line"/>
      <point x="255" y="686"/>
      <point x="265" y="694"/>
      <point x="312" y="694" type="curve" smooth="yes"/>
      <point x="355" y="694" type="line"/>
      <point x="359" y="714" type="line"/>
      <point x="133" y="714" type="line"/>
      <point x="129" y="694" type="line"/>
      <point x="172" y="694" type="line" smooth="yes"/>
      <point x="221" y="694"/>
      <point x="225" y="685"/>
      <point x="211" y="618" type="curve"/>
      <point x="112" y="618" type="line"/>
      <point x="106" y="593" type="line"/>
      <point x="206" y="593" type="line"/>
      <point x="103" y="108" type="line" smooth="yes"/>
      <point x="87" y="31"/>
      <point x="78" y="20"/>
      <point x="28" y="20" type="curve" smooth="yes"/>
      <point x="-15" y="20" type="line"/>
    </contour>
    <contour>
      <point x="138" y="142" type="line"/>
      <point x="218" y="519" type="line"/>
      <point x="305" y="519" type="line" smooth="yes"/>
      <point x="423" y="519"/>
      <point x="483" y="460"/>
      <point x="483" y="353" type="curve" smooth="yes"/>
      <point x="483" y="235"/>
      <point x="406" y="142"/>
      <point x="206" y="142" type="curve" smooth="yes"/>
    </contour>
  </outline>
</glyph>
<glyph name="uniA765" format="2">
  <advance width="483"/>
  <unicode hex="A765"/>
  <anchor x="134" y="-240" name="bottom"/>
  <anchor x="347" y="760" name="top"/>
  <outline>
    <contour>
      <point x="60" y="616" type="line"/>
      <point x="344" y="616" type="line"/>
      <point x="348" y="641" type="line"/>
      <point x="64" y="641" type="line"/>
    </contour>
    <component base="thorn"/>
  </outline>
</glyph>
<glyph name="uniA792" format="2">
  <advance width="624"/>
  <unicode hex="A792"/>
  <anchor x="311" y="0" name="bottom"/>
  <anchor x="454" y="714" name="top"/>
  <anchor x="699" y="714" name="topright"/>
  <outline>
    <contour>
      <point x="9" y="362" type="line"/>
      <point x="295" y="362" type="line"/>
      <point x="301" y="387" type="line"/>
      <point x="14" y="387" type="line"/>
    </contour>
    <component base="C" xOffset="50"/>
  </outline>
</glyph>
<glyph name="uniA799" format="2">
  <advance width="209"/>
  <unicode hex="A799"/>
  <anchor x="-79" y="-240" name="bottom"/>
  <anchor x="302" y="770" name="top"/>
  <anchor x="417" y="770" name="topright"/>
  <outline>
    <contour>
      <point x="2" y="288" type="line"/>
      <point x="234" y="288" type="line"/>
      <point x="239" y="313" type="line"/>
      <point x="7" y="313" type="line"/>
    </contour>
    <component base="f"/>
  </outline>
</glyph>
<glyph name="uniA7A0" format="2">
  <advance width="609"/>
  <unicode hex="A7A0"/>
  <anchor x="277" y="0" name="bottom"/>
  <anchor x="439" y="714" name="top"/>
  <anchor x="684" y="714" name="topright"/>
  <outline>
    <contour>
      <point x="-14" y="205" type="line"/>
      <point x="638" y="349" type="line"/>
      <point x="644" y="375" type="line"/>
      <point x="-8" y="231" type="line"/>
    </contour>
    <component base="G"/>
  </outline>
</glyph>
<glyph name="uniA7A1" format="2">
  <advance width="526"/>
  <unicode hex="A7A1"/>
  <anchor x="119" y="-240" name="bottom"/>
  <anchor x="284" y="536" name="top"/>
  <anchor x="526" y="536" name="topright"/>
  <outline>
    <contour>
      <point x="7" y="301" type="line"/>
      <point x="518" y="405" type="line"/>
      <point x="524" y="432" type="line"/>
      <point x="14" y="328" type="line"/>
    </contour>
    <component base="g"/>
  </outline>
</glyph>
<glyph name="uniA7A4" format="2">
  <advance width="731"/>
  <unicode hex="A7A4"/>
  <anchor x="309" y="0" name="bottom"/>
  <anchor x="461" y="714" name="top"/>
  <anchor x="806" y="714" name="topright"/>
  <outline>
    <contour>
      <point x="61" y="278" type="line"/>
      <point x="705" y="436" type="line"/>
      <point x="713" y="463" type="line"/>
      <point x="69" y="305" type="line"/>
    </contour>
    <component base="N"/>
  </outline>
</glyph>
<glyph name="uniA7A5" format="2">
  <advance width="506"/>
  <unicode hex="A7A5"/>
  <anchor x="196" y="0" name="bottom"/>
  <anchor x="310" y="536" name="top"/>
  <anchor x="543" y="536" name="topright"/>
  <outline>
    <contour>
      <point x="46" y="228" type="line"/>
      <point x="456" y="304" type="line"/>
      <point x="464" y="331" type="line"/>
      <point x="56" y="254" type="line"/>
    </contour>
    <component base="n"/>
  </outline>
</glyph>
<glyph name="uniA7A6" format="2">
  <advance width="609"/>
  <unicode hex="A7A6"/>
  <anchor x="249" y="0" name="bottom"/>
  <anchor x="401" y="714" name="top"/>
  <anchor x="684" y="714" name="topright"/>
  <outline>
    <contour>
      <point x="88" y="441" type="line"/>
      <point x="614" y="566" type="line"/>
      <point x="620" y="593" type="line"/>
      <point x="95" y="468" type="line"/>
    </contour>
    <component base="R"/>
  </outline>
</glyph>
<glyph name="uniA7A7" format="2">
  <advance width="363"/>
  <unicode hex="A7A7"/>
  <anchor x="66" y="0" name="bottom"/>
  <anchor x="258" y="536" name="top"/>
  <anchor x="400" y="536" name="topright"/>
  <outline>
    <contour>
      <point x="29" y="208" type="line"/>
      <point x="278" y="267" type="line"/>
      <point x="286" y="295" type="line"/>
      <point x="37" y="236" type="line"/>
    </contour>
    <component base="r"/>
  </outline>
</glyph>
<glyph name="uniA7A9" format="2">
  <advance width="399"/>
  <unicode hex="A7A9"/>
  <anchor x="143" y="0" name="bottom"/>
  <anchor x="257" y="536" name="top"/>
  <anchor x="436" y="536" name="topright"/>
  <outline>
    <contour>
      <point x="81" y="237" type="line"/>
      <point x="320" y="289" type="line"/>
      <point x="328" y="316" type="line"/>
      <point x="89" y="264" type="line"/>
    </contour>
    <component base="s"/>
  </outline>
</glyph>
<glyph name="uniA7AE" format="2">
  <advance width="526"/>
  <unicode hex="A7AE"/>
  <outline>
    <contour>
      <point x="-3" y="0" type="line"/>
      <point x="445" y="0" type="line"/>
      <point x="481" y="151" type="line"/>
      <point x="456" y="151" type="line"/>
      <point x="444" y="103" type="line" smooth="yes"/>
      <point x="425" y="27"/>
      <point x="421" y="25"/>
      <point x="337" y="25" type="curve" smooth="yes"/>
      <point x="238" y="25" type="line"/>
      <point x="342" y="511" type="line"/>
      <point x="459" y="511" type="line" smooth="yes"/>
      <point x="511" y="511"/>
      <point x="515" y="504"/>
      <point x="515" y="473" type="curve" smooth="yes"/>
      <point x="515" y="449"/>
      <point x="512" y="422"/>
      <point x="506" y="385" type="curve"/>
      <point x="531" y="385" type="line"/>
      <point x="559" y="536" type="line"/>
      <point x="111" y="536" type="line"/>
      <point x="75" y="385" type="line"/>
      <point x="100" y="385" type="line"/>
      <point x="112" y="433" type="line" smooth="yes"/>
      <point x="131" y="509"/>
      <point x="135" y="511"/>
      <point x="219" y="511" type="curve" smooth="yes"/>
      <point x="314" y="511" type="line"/>
      <point x="210" y="25" type="line"/>
      <point x="97" y="25" type="line" smooth="yes"/>
      <point x="45" y="25"/>
      <point x="41" y="32"/>
      <point x="41" y="63" type="curve" smooth="yes"/>
      <point x="41" y="87"/>
      <point x="44" y="114"/>
      <point x="50" y="151" type="curve"/>
      <point x="25" y="151" type="line"/>
    </contour>
  </outline>
</glyph>
<glyph name="uniA7AF" format="2">
  <advance width="549"/>
  <unicode hex="A7AF"/>
  <anchor x="214" y="0" name="bottom"/>
  <anchor x="275" y="286" name="center"/>
  <anchor x="336" y="571" name="top"/>
  <anchor x="590" y="571" name="topright"/>
  <outline>
    <contour>
      <point x="215" y="-7" type="curve"/>
      <point x="187" y="-5" type="line"/>
      <point x="176" y="-115"/>
      <point x="230" y="-208"/>
      <point x="335" y="-208" type="curve" smooth="yes"/>
      <point x="387" y="-208"/>
      <point x="419" y="-202"/>
      <point x="457" y="-192" type="curve"/>
      <point x="451" y="-167" type="line"/>
      <point x="414" y="-178"/>
      <point x="379" y="-183"/>
      <point x="335" y="-183" type="curve" smooth="yes"/>
      <point x="252" y="-183"/>
      <point x="202" y="-100"/>
    </contour>
    <component base="o.sc"/>
  </outline>
</glyph>
<glyph name="uniA7B9" format="2">
  <advance width="597"/>
  <unicode hex="A7B9"/>
  <anchor x="196" y="0" name="bottom"/>
  <anchor x="310" y="536" name="top"/>
  <anchor x="543" y="536" name="topright"/>
  <outline>
    <contour>
      <point x="10" y="-11" type="line"/>
      <point x="39" y="-11" type="line"/>
      <point x="509" y="582" type="line"/>
      <point x="479" y="582" type="line"/>
    </contour>
    <component base="u"/>
  </outline>
</glyph>
<glyph name="uniA7C7" format="2">
  <advance width="664"/>
  <unicode hex="A7C7"/>
  <anchor x="278" y="0" name="bottom"/>
  <anchor x="373" y="357" name="center"/>
  <anchor x="430" y="714" name="top"/>
  <anchor x="745" y="714" name="topright"/>
  <outline>
    <contour>
      <point x="176" y="355" type="line"/>
      <point x="615" y="355" type="line"/>
      <point x="615" y="380" type="line"/>
      <point x="176" y="380" type="line"/>
    </contour>
    <component base="D"/>
  </outline>
</glyph>
<glyph name="uniA7C8" format="2">
  <advance width="488"/>
  <unicode hex="A7C8"/>
  <anchor x="178" y="0" name="bottom"/>
  <anchor x="292" y="268" name="center"/>
  <anchor x="340" y="760" name="top"/>
  <anchor x="525" y="760" name="topright"/>
  <outline>
    <contour>
      <point x="68" y="258" type="line"/>
      <point x="371" y="258" type="line"/>
      <point x="371" y="283" type="line"/>
      <point x="68" y="283" type="line"/>
    </contour>
    <component base="d"/>
  </outline>
</glyph>
<glyph name="uniA7C9" format="2">
  <advance width="489"/>
  <unicode hex="A7C9"/>
  <anchor x="189" y="0" name="bottom"/>
  <anchor x="341" y="714" name="top"/>
  <anchor x="564" y="714" name="topright"/>
  <outline>
    <contour>
      <point x="62" y="355" type="line"/>
      <point x="444" y="355" type="line"/>
      <point x="450" y="380" type="line"/>
      <point x="68" y="380" type="line"/>
    </contour>
    <component base="S"/>
  </outline>
</glyph>
<glyph name="uniA7CA" format="2">
  <advance width="399"/>
  <unicode hex="A7CA"/>
  <anchor x="143" y="0" name="bottom"/>
  <anchor x="257" y="536" name="top"/>
  <anchor x="436" y="536" name="topright"/>
  <outline>
    <contour>
      <point x="62" y="263" type="line"/>
      <point x="355" y="263" type="line"/>
      <point x="361" y="288" type="line"/>
      <point x="68" y="288" type="line"/>
    </contour>
    <component base="s"/>
  </outline>
</glyph>
<glyph name="uniA7FF" format="2">
  <advance width="992"/>
  <unicode hex="A7FF"/>
  <outline>
    <contour>
      <point x="72" y="-9" type="curve" smooth="yes"/>
      <point x="85" y="-9"/>
      <point x="96" y="2"/>
      <point x="96" y="21" type="curve"/>
      <point x="82" y="21"/>
      <point x="66" y="31"/>
      <point x="66" y="94" type="curve" smooth="yes"/>
      <point x="66" y="196"/>
      <point x="129" y="333"/>
      <point x="289" y="509" type="curve"/>
      <point x="292" y="509" type="line"/>
      <point x="368" y="-13" type="line"/>
      <point x="397" y="-4" type="line"/>
      <point x="471" y="134"/>
      <point x="599" y="380"/>
      <point x="648" y="479" type="curve"/>
      <point x="652" y="411"/>
      <point x="666" y="109"/>
      <point x="669" y="-14" type="curve"/>
      <point x="698" y="-5" type="line"/>
      <point x="902" y="240"/>
      <point x="959" y="368"/>
      <point x="959" y="467" type="curve" smooth="yes"/>
      <point x="959" y="519"/>
      <point x="946" y="546"/>
      <point x="923" y="546" type="curve" smooth="yes"/>
      <point x="910" y="546"/>
      <point x="899" y="535"/>
      <point x="899" y="516" type="curve"/>
      <point x="913" y="516"/>
      <point x="929" y="506"/>
      <point x="929" y="450" type="curve" smooth="yes"/>
      <point x="929" y="372"/>
      <point x="870" y="247"/>
      <point x="700" y="35" type="curve"/>
      <point x="694" y="35" type="line"/>
      <point x="694" y="137"/>
      <point x="678" y="431"/>
      <point x="671" y="531" type="curve"/>
      <point x="644" y="527" type="line"/>
      <point x="574" y="387"/>
      <point x="452" y="152"/>
      <point x="391" y="39" type="curve"/>
      <point x="388" y="39" type="line"/>
      <point x="315" y="546" type="line"/>
      <point x="279" y="536" type="line"/>
      <point x="104" y="347"/>
      <point x="36" y="202"/>
      <point x="36" y="70" type="curve" smooth="yes"/>
      <point x="36" y="18"/>
      <point x="49" y="-9"/>
    </contour>
  </outline>
</glyph>
<glyph name="uniAB30" format="2">
  <advance width="525"/>
  <unicode hex="AB30"/>
  <anchor x="225" y="0" name="bottom"/>
  <anchor x="339" y="536" name="top"/>
  <outline>
    <contour>
      <point x="-14" y="273" type="line"/>
      <point x="485" y="273" type="line"/>
      <point x="491" y="298" type="line"/>
      <point x="-8" y="298" type="line"/>
    </contour>
    <component base="uni0251"/>
  </outline>
</glyph>
<glyph name="uniAB41" format="2">
  <advance width="815"/>
  <unicode hex="AB41"/>
  <anchor x="462" y="536" name="bottom"/>
  <anchor x="348" y="0" name="top"/>
  <outline>
    <contour>
      <point x="371" y="-40" type="line"/>
      <point x="402" y="-40" type="line"/>
      <point x="746" y="576" type="line"/>
      <point x="715" y="576" type="line"/>
    </contour>
    <component base="oe" xScale="-1" yScale="-1" xOffset="815" yOffset="536"/>
  </outline>
</glyph>
<glyph name="uniAB4F" format="2">
  <advance width="493"/>
  <unicode hex="AB4F"/>
  <outline>
    <contour>
      <point x="2" y="274" type="line"/>
      <point x="520" y="274" type="line"/>
      <point x="526" y="299" type="line"/>
      <point x="8" y="299" type="line"/>
    </contour>
    <component base="uniAB4E"/>
  </outline>
</glyph>
<glyph name="uniAB60" format="2">
  <advance width="639"/>
  <unicode hex="AB60"/>
  <outline>
    <contour>
      <point x="439" y="-10" type="curve" smooth="yes"/>
      <point x="537" y="-10"/>
      <point x="591" y="59"/>
      <point x="591" y="160" type="curve" smooth="yes"/>
      <point x="591" y="259"/>
      <point x="538" y="303"/>
      <point x="442" y="303" type="curve" smooth="yes"/>
      <point x="417" y="303"/>
      <point x="388" y="300"/>
      <point x="356" y="294" type="curve"/>
      <point x="407" y="536" type="line"/>
      <point x="286" y="536" type="line"/>
      <point x="282" y="516" type="line"/>
      <point x="303" y="516" type="line" smooth="yes"/>
      <point x="355" y="516"/>
      <point x="362" y="511"/>
      <point x="362" y="480" type="curve" smooth="yes"/>
      <point x="362" y="463"/>
      <point x="360" y="444"/>
      <point x="357" y="432" type="curve" smooth="yes"/>
      <point x="328" y="296" type="line" smooth="yes"/>
      <point x="321" y="263"/>
      <point x="308" y="204"/>
      <point x="308" y="149" type="curve" smooth="yes"/>
      <point x="308" y="43"/>
      <point x="354" y="-10"/>
    </contour>
    <contour>
      <point x="143" y="-10" type="curve" smooth="yes"/>
      <point x="176" y="-10"/>
      <point x="201" y="7"/>
      <point x="229" y="32" type="curve"/>
      <point x="213" y="50" type="line"/>
      <point x="185" y="25"/>
      <point x="166" y="15"/>
      <point x="146" y="15" type="curve" smooth="yes"/>
      <point x="115" y="15"/>
      <point x="105" y="41"/>
      <point x="105" y="80" type="curve" smooth="yes"/>
      <point x="105" y="115"/>
      <point x="113" y="152"/>
      <point x="123" y="201" type="curve" smooth="yes"/>
      <point x="190" y="536" type="line"/>
      <point x="70" y="536" type="line"/>
      <point x="66" y="516" type="line"/>
      <point x="87" y="516" type="line" smooth="yes"/>
      <point x="132" y="516"/>
      <point x="147" y="511"/>
      <point x="147" y="480" type="curve" smooth="yes"/>
      <point x="147" y="468"/>
      <point x="145" y="453"/>
      <point x="141" y="432" type="curve" smooth="yes"/>
      <point x="96" y="201" type="line" smooth="yes"/>
      <point x="87" y="156"/>
      <point x="78" y="116"/>
      <point x="78" y="78" type="curve" smooth="yes"/>
      <point x="78" y="20"/>
      <point x="99" y="-10"/>
    </contour>
    <contour>
      <point x="439" y="15" type="curve" smooth="yes"/>
      <point x="373" y="15"/>
      <point x="336" y="57"/>
      <point x="336" y="148" type="curve" smooth="yes"/>
      <point x="336" y="177"/>
      <point x="339" y="208"/>
      <point x="351" y="268" type="curve"/>
      <point x="382" y="275"/>
      <point x="417" y="278"/>
      <point x="440" y="278" type="curve" smooth="yes"/>
      <point x="518" y="278"/>
      <point x="563" y="241"/>
      <point x="563" y="157" type="curve" smooth="yes"/>
      <point x="563" y="72"/>
      <point x="517" y="15"/>
    </contour>
  </outline>
</glyph>
<glyph name="uniAB66" format="2">
  <advance width="912"/>
  <unicode hex="AB66"/>
  <anchor x="350" y="0" name="bottom"/>
  <anchor x="502" y="760" name="top"/>
  <outline>
    <contour>
      <point x="716" y="-29" type="curve" smooth="yes"/>
      <point x="726" y="13" type="line"/>
      <point x="699" y="13" type="line"/>
      <point x="687" y="-37" type="line" smooth="yes"/>
      <point x="659" y="-154"/>
      <point x="677" y="-241"/>
      <point x="795" y="-241" type="curve" smooth="yes"/>
      <point x="847" y="-241"/>
      <point x="873" y="-225"/>
      <point x="873" y="-195" type="curve" smooth="yes"/>
      <point x="873" y="-175"/>
      <point x="861" y="-163"/>
      <point x="838" y="-163" type="curve" smooth="yes"/>
      <point x="793" y="-163"/>
      <point x="817" y="-211"/>
      <point x="767" y="-211" type="curve" smooth="yes"/>
      <point x="703" y="-211"/>
      <point x="690" y="-136"/>
    </contour>
    <component base="dzlig"/>
  </outline>
</glyph>
<glyph name="uniFE20" format="2">
  <unicode hex="FE20"/>
  <anchor x="42" y="536" name="_top"/>
  <outline>
    <contour>
      <point x="-271" y="597" type="curve"/>
      <point x="-241" y="597" type="line"/>
      <point x="-175" y="656"/>
      <point x="-91" y="712"/>
      <point x="79" y="712" type="curve"/>
      <point x="79" y="740" type="line"/>
      <point x="-97" y="740"/>
      <point x="-201" y="676"/>
    </contour>
  </outline>
</glyph>
<glyph name="uniFE21" format="2">
  <unicode hex="FE21"/>
  <anchor x="36" y="536" name="_top"/>
  <outline>
    <contour>
      <point x="356" y="597" type="curve"/>
      <point x="383" y="597" type="line"/>
      <point x="346" y="671"/>
      <point x="255" y="739"/>
      <point x="83" y="740" type="curve" smooth="yes"/>
      <point x="79" y="740" type="line"/>
      <point x="79" y="712" type="line"/>
      <point x="83" y="712" type="line" smooth="yes"/>
      <point x="224" y="711"/>
      <point x="313" y="669"/>
    </contour>
  </outline>
</glyph>
<glyph name="uniFE22" format="2">
  <unicode hex="FE22"/>
  <anchor x="62" y="536" name="_top"/>
  <outline>
    <contour>
      <point x="-311" y="605" type="curve"/>
      <point x="-284" y="605" type="line"/>
      <point x="-265" y="657"/>
      <point x="-200" y="677"/>
      <point x="-126" y="677" type="curve" smooth="yes"/>
      <point x="-40" y="677"/>
      <point x="21" y="656"/>
      <point x="84" y="638" type="curve"/>
      <point x="84" y="664" type="line"/>
      <point x="24" y="681"/>
      <point x="-38" y="702"/>
      <point x="-128" y="702" type="curve" smooth="yes"/>
      <point x="-216" y="702"/>
      <point x="-286" y="678"/>
    </contour>
  </outline>
</glyph>
<glyph name="uniFE23" format="2">
  <unicode hex="FE23"/>
  <anchor x="57" y="536" name="_top"/>
  <outline>
    <contour>
      <point x="284" y="599" type="curve" smooth="yes"/>
      <point x="384" y="599"/>
      <point x="438" y="626"/>
      <point x="466" y="696" type="curve"/>
      <point x="439" y="696" type="line"/>
      <point x="420" y="645"/>
      <point x="366" y="624"/>
      <point x="282" y="624" type="curve" smooth="yes"/>
      <point x="206" y="624"/>
      <point x="149" y="646"/>
      <point x="84" y="664" type="curve"/>
      <point x="84" y="638" type="line"/>
      <point x="146" y="620"/>
      <point x="204" y="599"/>
    </contour>
  </outline>
</glyph>
<glyph name="combiningmacronlefthalf" format="2">
  <unicode hex="FE24"/>
  <anchor x="57" y="536" name="_top"/>
  <outline>
    <contour>
      <point x="92" y="703" type="line"/>
      <point x="454" y="703" type="line"/>
      <point x="460" y="731" type="line"/>
      <point x="98" y="731" type="line"/>
    </contour>
  </outline>
</glyph>
<glyph name="combiningmacronrighthalf" format="2">
  <unicode hex="FE25"/>
  <anchor x="57" y="536" name="_top"/>
  <outline>
    <contour>
      <point x="-268" y="703" type="line"/>
      <point x="92" y="703" type="line"/>
      <point x="98" y="731" type="line"/>
      <point x="-262" y="731" type="line"/>
    </contour>
  </outline>
</glyph>
<glyph name="uniFE27" format="2">
  <unicode hex="FE27"/>
  <anchor x="-57" y="0" name="_bottom"/>
  <outline>
    <contour>
      <point x="-102" y="-207" type="curve"/>
      <point x="-96" y="-182" type="line"/>
      <point x="-255" y="-182"/>
      <point x="-397" y="-147"/>
      <point x="-439" y="-26" type="curve"/>
      <point x="-463" y="-26" type="line"/>
      <point x="-426" y="-160"/>
      <point x="-273" y="-207"/>
    </contour>
  </outline>
</glyph>
<glyph name="uniFE28" format="2">
  <unicode hex="FE28"/>
  <anchor x="-57" y="0" name="_bottom"/>
  <outline>
    <contour>
      <point x="-101" y="-207" type="line"/>
      <point x="118" y="-203"/>
      <point x="229" y="-110"/>
      <point x="291" y="-26" type="curve"/>
      <point x="264" y="-26" type="line"/>
      <point x="198" y="-105"/>
      <point x="93" y="-177"/>
      <point x="-95" y="-182" type="curve"/>
    </contour>
  </outline>
</glyph>
<glyph name="uniFE29" format="2">
  <unicode hex="FE29"/>
  <anchor x="-57" y="0" name="_bottom"/>
  <outline>
    <contour>
      <point x="-449" y="-186" type="curve"/>
      <point x="-422" y="-186" type="line"/>
      <point x="-403" y="-134"/>
      <point x="-338" y="-114"/>
      <point x="-264" y="-114" type="curve" smooth="yes"/>
      <point x="-193" y="-114"/>
      <point x="-140" y="-128"/>
      <point x="-88" y="-143" type="curve"/>
      <point x="-82" y="-118" type="line"/>
      <point x="-134" y="-103"/>
      <point x="-190" y="-89"/>
      <point x="-266" y="-89" type="curve" smooth="yes"/>
      <point x="-354" y="-89"/>
      <point x="-424" y="-113"/>
    </contour>
  </outline>
</glyph>
<glyph name="uniFE2A" format="2">
  <unicode hex="FE2A"/>
  <anchor x="-57" y="0" name="_bottom"/>
  <outline>
    <contour>
      <point x="104" y="-179" type="curve" smooth="yes"/>
      <point x="204" y="-179"/>
      <point x="258" y="-152"/>
      <point x="286" y="-82" type="curve"/>
      <point x="259" y="-82" type="line"/>
      <point x="240" y="-133"/>
      <point x="186" y="-154"/>
      <point x="102" y="-154" type="curve" smooth="yes"/>
      <point x="31" y="-154"/>
      <point x="-22" y="-135"/>
      <point x="-81" y="-118" type="curve"/>
      <point x="-87" y="-143" type="line"/>
      <point x="-28" y="-160"/>
      <point x="28" y="-179"/>
    </contour>
  </outline>
</glyph>
<glyph name="uniFE2F" format="2">
  <unicode hex="FE2F"/>
  <anchor x="138" y="536" name="_top"/>
  <outline>
    <contour>
      <point x="-47" y="616" type="line"/>
      <point x="160" y="616" type="line" smooth="yes"/>
      <point x="197" y="616"/>
      <point x="211" y="635"/>
      <point x="211" y="656" type="curve" smooth="yes"/>
      <point x="211" y="684"/>
      <point x="195" y="701"/>
      <point x="169" y="701" type="curve" smooth="yes"/>
      <point x="142" y="701"/>
      <point x="127" y="688"/>
      <point x="125" y="657" type="curve"/>
      <point x="-47" y="657" type="line"/>
    </contour>
  </outline>
</glyph>
<glyph name="hbar.sc" format="2">
  <advance width="643"/>
  <anchor x="261" y="0" name="bottom"/>
  <anchor x="383" y="571" name="top"/>
  <anchor x="322" y="286" name="center"/>
  <anchor x="684" y="571" name="topright"/>
  <outline>
    <contour>
      <point x="85" y="405" type="line"/>
      <point x="605" y="405" type="line"/>
      <point x="609" y="430" type="line"/>
      <point x="90" y="430" type="line"/>
    </contour>
    <component base="h.sc"/>
  </outline>
</glyph>
<glyph name="lslash.sc" format="2">
  <advance width="467"/>
  <anchor x="172" y="0" name="bottom"/>
  <anchor x="294" y="571" name="top"/>
  <anchor x="234" y="286" name="center"/>
  <anchor x="508" y="571" name="topright"/>
  <outline>
    <contour>
      <point x="12" y="181" type="line"/>
      <point x="294" y="323" type="line"/>
      <point x="299" y="354" type="line"/>
      <point x="17" y="212" type="line"/>
    </contour>
    <component base="l.sc"/>
  </outline>
</glyph>
<glyph name="macronacute" format="2">
  <advance width="500"/>
  <outline>
    <contour>
      <point x="286" y="695" type="line"/>
      <point x="292" y="695" type="line"/>
      <point x="341" y="732"/>
      <point x="417" y="802"/>
      <point x="448" y="836" type="curve"/>
      <point x="450" y="846" type="line"/>
      <point x="403" y="846" type="line"/>
      <point x="373" y="801"/>
      <point x="323" y="746"/>
      <point x="286" y="708" type="curve"/>
    </contour>
    <contour>
      <point x="179" y="614" type="line"/>
      <point x="469" y="614" type="line"/>
      <point x="474" y="639" type="line"/>
      <point x="184" y="639" type="line"/>
    </contour>
  </outline>
</glyph>
<glyph name="oslash.sc" format="2">
  <advance width="549"/>
  <anchor x="211" y="0" name="bottom"/>
  <anchor x="333" y="571" name="top"/>
  <anchor x="275" y="286" name="center"/>
  <anchor x="590" y="571" name="topright"/>
  <outline>
    <contour>
      <point x="40" y="-33" type="line"/>
      <point x="73" y="-33" type="line"/>
      <point x="529" y="603" type="line"/>
      <point x="497" y="603" type="line"/>
    </contour>
    <component base="o.sc"/>
  </outline>
</glyph>
<glyph name="tbar.sc" format="2">
  <advance width="455"/>
  <anchor x="177" y="0" name="bottom"/>
  <anchor x="299" y="571" name="top"/>
  <anchor x="238" y="286" name="center"/>
  <anchor x="506" y="571" name="topright"/>
  <outline>
    <contour>
      <point x="62" y="268" type="line"/>
      <point x="410" y="268" type="line"/>
      <point x="415" y="293" type="line"/>
      <point x="67" y="293" type="line"/>
    </contour>
    <component base="t.sc"/>
  </outline>
</glyph>
<glyph name="uni02E8_uni02E6_uni02E5" format="2">
  <advance width="383"/>
  <outline>
    <contour>
      <point x="238" y="0" type="line"/>
      <point x="305" y="0" type="line"/>
      <point x="305" y="688" type="line"/>
      <point x="238" y="688" type="line"/>
      <point x="238" y="610" type="line"/>
      <point x="28" y="198" type="line"/>
      <point x="86" y="168" type="line"/>
      <point x="238" y="465" type="line"/>
    </contour>
  </outline>
</glyph>
